<svg width="656" height="788" viewBox="0 0 656 788" fill="none" xmlns="http://www.w3.org/2000/svg">
<path d="M373.631 543.587L348.978 755.487C348.875 756.412 348.968 757.349 349.25 758.236C349.532 759.123 349.998 759.941 350.617 760.636C351.237 761.332 351.995 761.889 352.844 762.272C353.692 762.655 354.612 762.855 355.543 762.86C357.05 762.852 358.51 762.332 359.682 761.385C360.854 760.437 361.669 759.119 361.993 757.647L408.45 543.581H373.631V543.587Z" fill="white"/>
<path d="M355.545 764.672C354.358 764.668 353.186 764.413 352.104 763.926C351.022 763.438 350.055 762.728 349.266 761.842C348.478 760.955 347.884 759.913 347.525 758.782C347.166 757.651 347.049 756.457 347.182 755.278L371.835 543.378C371.887 542.936 372.1 542.528 372.434 542.233C372.768 541.938 373.199 541.776 373.645 541.779H408.452C408.722 541.779 408.989 541.84 409.233 541.957C409.477 542.074 409.691 542.244 409.861 542.454C410.031 542.665 410.151 542.911 410.213 543.174C410.275 543.438 410.277 543.711 410.219 543.976L363.762 758.035C363.351 759.911 362.312 761.59 360.819 762.797C359.325 764.003 357.465 764.665 355.545 764.672ZM375.268 545.399L350.802 755.694C350.742 756.878 351.119 758.042 351.862 758.965C352.605 759.888 353.661 760.506 354.83 760.7C355.999 760.895 357.199 760.653 358.2 760.02C359.202 759.387 359.936 758.408 360.263 757.269L406.237 545.399H375.268Z" fill="#262424"/>
<path d="M464.72 543.587L489.372 755.487C489.475 756.412 489.383 757.349 489.1 758.236C488.818 759.123 488.352 759.941 487.733 760.636C487.114 761.331 486.356 761.889 485.507 762.272C484.658 762.655 483.739 762.855 482.808 762.86C481.299 762.855 479.837 762.337 478.663 761.391C477.488 760.444 476.671 759.126 476.346 757.653L429.889 543.587H464.714H464.72Z" fill="white"/>
<path d="M482.797 764.672C480.875 764.667 479.012 764.007 477.515 762.8C476.019 761.594 474.979 759.913 474.567 758.035L428.11 543.976C428.052 543.711 428.055 543.438 428.117 543.174C428.179 542.911 428.299 542.665 428.468 542.454C428.638 542.244 428.853 542.074 429.097 541.957C429.34 541.84 429.607 541.779 429.878 541.779H464.703C465.148 541.776 465.579 541.938 465.913 542.233C466.247 542.528 466.461 542.936 466.513 543.378L491.165 755.278C491.298 756.458 491.181 757.652 490.822 758.783C490.462 759.915 489.869 760.957 489.079 761.844C488.289 762.73 487.322 763.44 486.239 763.928C485.157 764.415 483.984 764.669 482.797 764.672ZM432.116 545.399L478.091 757.269C478.417 758.408 479.151 759.387 480.153 760.02C481.155 760.653 482.355 760.895 483.523 760.7C484.692 760.506 485.748 759.888 486.491 758.965C487.234 758.042 487.611 756.878 487.551 755.694L463.086 545.399H432.134H432.116Z" fill="#262424"/>
<path d="M594.743 523.476H573.789L591.485 408.938H612.439L594.743 523.476Z" fill="white"/>
<path d="M594.747 525.288H573.769C573.506 525.291 573.246 525.237 573.006 525.129C572.766 525.022 572.552 524.863 572.38 524.664C572.208 524.466 572.081 524.232 572.008 523.979C571.935 523.726 571.919 523.461 571.959 523.201L589.655 408.668C589.722 408.238 589.942 407.846 590.274 407.564C590.607 407.283 591.029 407.131 591.465 407.136H612.419C612.682 407.133 612.943 407.187 613.182 407.295C613.422 407.403 613.636 407.561 613.808 407.76C613.98 407.959 614.107 408.193 614.18 408.445C614.253 408.698 614.269 408.964 614.229 409.223L596.539 523.732C596.478 524.164 596.263 524.559 595.934 524.845C595.605 525.131 595.183 525.288 594.747 525.288ZM575.905 521.668H593.197L610.338 410.756H593.046L575.905 521.668Z" fill="#262424"/>
<path d="M603.57 423.994C600.726 423.994 597.915 423.378 595.331 422.189C592.748 421 590.452 419.265 588.602 417.104C586.752 414.944 585.392 412.408 584.615 409.672C583.838 406.936 583.662 404.064 584.1 401.254L600.312 296.182C601.031 291.533 603.389 287.295 606.959 284.233C610.53 281.172 615.078 279.488 619.782 279.487C622.623 279.488 625.431 280.103 628.012 281.291C630.594 282.478 632.888 284.21 634.737 286.367C636.586 288.524 637.947 291.056 638.727 293.788C639.506 296.52 639.685 299.389 639.252 302.197L623.046 407.287C622.33 411.939 619.972 416.181 616.4 419.245C612.828 422.309 608.277 423.994 603.57 423.994Z" fill="#4C4C4C"/>
<path d="M504.686 543.587L480.033 755.487C479.93 756.412 480.023 757.348 480.305 758.236C480.587 759.123 481.053 759.941 481.672 760.636C482.291 761.331 483.05 761.889 483.898 762.272C484.747 762.655 485.667 762.855 486.598 762.859C488.106 762.855 489.568 762.337 490.743 761.39C491.917 760.444 492.734 759.126 493.059 757.652L539.517 543.587H504.686Z" fill="white"/>
<path d="M486.601 764.672C485.415 764.668 484.242 764.413 483.161 763.926C482.079 763.438 481.112 762.728 480.323 761.842C479.534 760.955 478.941 759.913 478.582 758.782C478.223 757.651 478.106 756.457 478.239 755.278L502.891 543.378C502.943 542.936 503.157 542.528 503.491 542.233C503.825 541.938 504.256 541.776 504.701 541.779H539.526C539.797 541.779 540.064 541.84 540.308 541.957C540.552 542.074 540.766 542.244 540.936 542.454C541.105 542.665 541.226 542.911 541.288 543.174C541.35 543.438 541.352 543.711 541.294 543.976L494.837 758.035C494.425 759.914 493.384 761.596 491.886 762.802C490.389 764.009 488.524 764.669 486.601 764.672ZM506.294 545.399L481.829 755.694C481.769 756.878 482.146 758.042 482.889 758.965C483.632 759.888 484.688 760.506 485.857 760.7C487.025 760.895 488.225 760.653 489.227 760.02C490.229 759.387 490.963 758.408 491.289 757.269L537.264 545.399H506.294Z" fill="#262424"/>
<path d="M595.774 543.587L620.427 755.487C620.53 756.412 620.438 757.349 620.155 758.236C619.873 759.123 619.407 759.941 618.788 760.636C618.169 761.331 617.41 761.889 616.562 762.272C615.713 762.655 614.793 762.855 613.862 762.86C612.354 762.855 610.892 762.337 609.717 761.391C608.543 760.444 607.726 759.126 607.401 757.653L560.943 543.587H595.768H595.774Z" fill="white"/>
<path d="M613.854 764.669C611.931 764.664 610.068 764.004 608.572 762.798C607.076 761.591 606.036 759.91 605.624 758.033L559.167 543.967C559.109 543.702 559.111 543.429 559.173 543.165C559.235 542.902 559.355 542.656 559.525 542.446C559.695 542.235 559.909 542.065 560.153 541.948C560.397 541.831 560.664 541.771 560.934 541.771H595.759C596.205 541.768 596.636 541.929 596.97 542.224C597.304 542.519 597.517 542.927 597.569 543.369L622.222 755.269C622.356 756.449 622.24 757.644 621.881 758.776C621.522 759.908 620.928 760.952 620.138 761.839C619.348 762.726 618.381 763.437 617.298 763.924C616.215 764.412 615.041 764.666 613.854 764.669ZM563.173 545.397L609.148 757.266C609.474 758.405 610.208 759.384 611.21 760.017C612.212 760.65 613.411 760.892 614.58 760.697C615.749 760.503 616.805 759.885 617.548 758.962C618.291 758.039 618.668 756.875 618.608 755.692L594.161 545.397H563.191H563.173Z" fill="#262424"/>
<path d="M509.853 511.761H374.728C364.825 511.761 356.797 519.789 356.797 529.692C356.797 539.595 364.825 547.623 374.728 547.623H509.853C519.756 547.623 527.784 539.595 527.784 529.692C527.784 519.789 519.756 511.761 509.853 511.761Z" fill="#DE9244"/>
<path d="M594.702 511.761H505.757C495.854 511.761 487.826 519.789 487.826 529.692C487.826 539.595 495.854 547.623 505.757 547.623H594.702C604.605 547.623 612.634 539.595 612.634 529.692C612.634 519.789 604.605 511.761 594.702 511.761Z" fill="white"/>
<path d="M594.702 549.436H505.757C500.521 549.436 495.5 547.356 491.798 543.654C488.095 539.952 486.016 534.93 486.016 529.695C486.016 524.459 488.095 519.437 491.798 515.735C495.5 512.033 500.521 509.953 505.757 509.953H594.702C599.937 509.953 604.959 512.033 608.661 515.735C612.363 519.437 614.443 524.459 614.443 529.695C614.443 534.93 612.363 539.952 608.661 543.654C604.959 547.356 599.937 549.436 594.702 549.436ZM505.757 513.573C501.481 513.573 497.381 515.272 494.357 518.295C491.334 521.318 489.636 525.419 489.636 529.695C489.636 533.97 491.334 538.071 494.357 541.094C497.381 544.117 501.481 545.816 505.757 545.816H594.702C598.977 545.816 603.078 544.117 606.101 541.094C609.124 538.071 610.823 533.97 610.823 529.695C610.823 525.419 609.124 521.318 606.101 518.295C603.078 515.272 598.977 513.573 594.702 513.573H505.757Z" fill="#262424"/>
<path d="M144.885 672.393C144.885 672.393 96.9189 527.591 191.945 434.387C191.945 434.387 245.335 555.653 144.885 672.393Z" fill="#659673"/>
<path d="M188.325 457.919C188.325 457.919 157.838 563.914 147.334 666.525C147.334 666.525 178.37 557.464 188.325 457.919Z" fill="white"/>
<path d="M142.177 674.568C142.177 674.568 166.16 539.419 97.5905 450.885C97.5844 450.891 68.6723 563.915 142.177 674.568Z" fill="#659673"/>
<path d="M101.309 472.991C101.309 472.991 127.53 572.724 140.218 669.035C140.218 669.035 113.466 566.425 101.309 472.991Z" fill="white"/>
<path d="M145.326 668.535C88.6115 651.237 58.8486 555.106 58.8486 555.106L78.4211 559.873L86.9765 561.948L90.5 561.152L108.299 557.122C129.639 595.736 145.326 668.535 145.326 668.535Z" fill="#659673"/>
<path d="M137.677 662.499C137.073 661.6 99.4006 605.719 78.4465 559.877L87.0019 561.952L90.5254 561.156C99.0808 577.748 125.622 630.009 137.677 662.499Z" fill="white"/>
<path d="M108.324 557.118C108.324 557.118 69.004 592.354 54.1256 663.186C53.9269 664.134 53.4563 665.003 52.7714 665.688C52.0865 666.373 51.217 666.843 50.2691 667.041C49.3212 667.24 48.336 667.158 47.434 666.805C46.532 666.453 45.7523 665.845 45.1901 665.056C40.2367 658.064 34.2756 644.748 32.7009 620.27C29.8893 576.425 46.3787 551.887 56.0322 547.869C56.0322 547.869 61.3476 551.64 71.8397 554.506C74.9003 555.336 78.0041 555.996 81.1372 556.485C90.1367 557.839 99.2711 558.052 108.324 557.118Z" fill="#659673"/>
<path d="M81.136 556.489C71.3619 570.034 50.5647 602.892 47.5842 640.987C47.5842 640.987 41.0862 594.94 71.8385 554.51C74.8991 555.339 78.0029 556 81.136 556.489Z" fill="white"/>
<path d="M224.992 581.775C199.501 658.882 150.105 669.417 150.105 669.417L141.17 667.824C163.494 630.525 174.957 579.241 174.957 579.241L195.067 580.267L203.302 580.689L224.992 581.775Z" fill="#659673"/>
<path d="M203.314 580.675C190.897 634.487 150.769 664.148 150.117 664.63C177.871 635.634 190.674 596.609 195.078 580.259L203.314 580.675Z" fill="white"/>
<path d="M224.361 685.028C224.361 685.028 218.943 627.029 174.959 579.238C174.959 579.238 187.279 575.92 205.898 576.481C209.126 576.577 212.535 576.795 216.119 577.163C223.858 577.959 231.517 579.4 239.016 581.471C239.016 581.471 256.543 642.324 224.361 685.028Z" fill="#659673"/>
<path d="M229.139 652.846C226.617 620.314 211.926 588.385 205.898 576.469C209.126 576.565 212.535 576.782 216.119 577.151C234.69 614.54 229.139 652.846 229.139 652.846Z" fill="white"/>
<path d="M200.032 662.103C200.032 662.103 197.872 697.881 186.716 729.52C184.537 735.827 181.889 741.962 178.795 747.874C176.009 753.246 172.608 758.276 168.658 762.861H121.598C108.529 748.055 100.776 724.162 96.2573 703.359C93.297 689.763 91.2811 675.977 90.2239 662.103H200.032Z" fill="#DE9244"/>
<path d="M186.716 729.52C184.537 735.827 181.889 741.962 178.795 747.874C174.619 738.92 164.314 727.722 139.095 723.945C118.478 720.862 104.577 713.344 96.2573 703.359C93.297 689.763 91.2811 675.977 90.2239 662.103H115.999C118.34 674.097 125.93 694.822 150.558 700.716C173.147 706.128 183.03 717.978 186.716 729.52Z" fill="white"/>
<path d="M155.382 670.398C139.02 669.879 133.964 683.521 163.527 692.269C193.091 701.018 179.214 671.152 155.382 670.398Z" fill="white"/>
<path d="M298.979 651.388L287.516 695.733L305.013 699.353L320.699 655.611L298.979 651.388Z" fill="white"/>
<path d="M305.013 701.16C304.89 701.161 304.767 701.149 304.645 701.124L287.149 697.504C286.908 697.455 286.68 697.357 286.479 697.217C286.278 697.077 286.107 696.897 285.977 696.689C285.847 696.481 285.761 696.248 285.724 696.005C285.687 695.763 285.699 695.515 285.761 695.278L297.224 650.932C297.34 650.486 297.622 650.101 298.012 649.855C298.402 649.61 298.872 649.522 299.324 649.611L321.044 653.834C321.303 653.883 321.549 653.989 321.763 654.143C321.977 654.296 322.155 654.495 322.284 654.725C322.414 654.955 322.491 655.21 322.512 655.473C322.532 655.736 322.494 656.001 322.402 656.248L306.715 699.99C306.584 700.335 306.352 700.632 306.047 700.842C305.743 701.051 305.383 701.162 305.013 701.16ZM289.743 694.343L303.837 697.257L318.281 656.978L300.301 653.484L289.743 694.343Z" fill="#262424"/>
<path d="M216.051 754.908V762.86H314.329C314.329 762.86 314.649 758.709 314.933 751.728C315.536 737.996 316.248 714.924 314.426 689.397L283.052 684.371C283.052 684.371 256.125 712.39 232.166 734.195C229.68 736.458 227.056 738.66 224.323 740.753C219.049 744.766 216.051 749.737 216.051 754.908Z" fill="#4C4C4C"/>
<path d="M262.477 735.132C262.122 735.132 261.775 735.027 261.479 734.831C261.183 734.635 260.951 734.357 260.812 734.03C260.673 733.703 260.634 733.343 260.698 732.994C260.762 732.645 260.928 732.323 261.174 732.067C282.164 710.304 291.546 692.361 291.636 692.186C291.741 691.968 291.889 691.773 292.07 691.613C292.252 691.453 292.463 691.331 292.693 691.254C292.922 691.177 293.165 691.147 293.406 691.165C293.647 691.184 293.883 691.251 294.098 691.362C294.313 691.473 294.503 691.626 294.658 691.811C294.813 691.997 294.929 692.212 295 692.444C295.07 692.675 295.093 692.919 295.068 693.159C295.043 693.4 294.969 693.633 294.852 693.845C294.466 694.593 285.132 712.434 263.774 734.577C263.606 734.751 263.405 734.891 263.182 734.986C262.959 735.081 262.719 735.131 262.477 735.132Z" fill="#262424"/>
<path d="M298.787 736.162C303.605 736.162 307.511 731.813 307.511 726.448C307.511 721.083 303.605 716.734 298.787 716.734C293.968 716.734 290.062 721.083 290.062 726.448C290.062 731.813 293.968 736.162 298.787 736.162Z" fill="white"/>
<path d="M298.788 737.973C292.978 737.973 288.254 732.803 288.254 726.45C288.254 720.096 292.978 714.926 298.788 714.926C304.598 714.926 309.323 720.096 309.323 726.45C309.323 732.803 304.598 737.973 298.788 737.973ZM298.788 718.54C294.975 718.54 291.874 722.087 291.874 726.444C291.874 730.8 294.975 734.347 298.788 734.347C302.601 734.347 305.703 730.8 305.703 726.444C305.703 722.087 302.601 718.546 298.788 718.546V718.54Z" fill="#262424"/>
<path d="M216.051 754.908V762.86H314.329C314.329 762.86 314.649 758.709 314.933 751.728H263.045C263.045 751.728 259.727 728.614 232.172 734.189C229.686 736.451 227.062 738.654 224.329 740.747C219.05 744.766 216.051 749.737 216.051 754.908Z" fill="white"/>
<path d="M314.329 764.671H216.05C215.57 764.671 215.11 764.48 214.77 764.14C214.431 763.801 214.24 763.341 214.24 762.861V754.909C214.24 749.255 217.438 743.717 223.248 739.312C225.836 737.351 228.443 735.179 230.989 732.856C231.23 732.637 231.526 732.487 231.846 732.422C241.366 730.491 249.21 731.644 255.153 735.831C261.482 740.296 263.793 746.926 264.547 749.919H314.968C315.213 749.919 315.455 749.968 315.68 750.064C315.904 750.16 316.108 750.3 316.277 750.476C316.446 750.653 316.577 750.862 316.664 751.091C316.75 751.319 316.789 751.563 316.778 751.807C316.477 758.74 316.175 762.957 316.175 762.999C316.14 763.461 315.928 763.892 315.585 764.203C315.241 764.514 314.792 764.681 314.329 764.671ZM217.842 761.051H312.657C312.76 759.5 312.917 756.924 313.074 753.539H263.081C262.642 753.543 262.217 753.389 261.885 753.104C261.552 752.818 261.334 752.422 261.271 751.988C261.271 751.91 259.962 743.638 253.017 738.763C248.021 735.258 241.3 734.286 233.034 735.873C230.53 738.136 227.966 740.259 225.42 742.196C220.533 745.901 217.842 750.42 217.842 754.909V761.051Z" fill="#262424"/>
<path d="M571.691 430.968C571.691 430.968 562.84 485.268 560.831 492.104C558.822 498.94 537.904 510.609 523.019 511.411C508.135 512.214 385.059 511.411 385.059 511.411L331.561 665.463L284.5 655.007C284.5 655.007 310.83 538.29 323.518 487.241C326.824 473.968 329.202 465.111 329.95 463.946C330.831 462.577 341.299 459.723 356.611 456.103C404.058 445.032 498.083 427.33 498.083 427.33C498.083 427.33 513.366 397.965 541.524 397.965C569.682 397.965 574.907 411.661 571.691 430.968Z" fill="#659673"/>
<path d="M539.513 470.686C539.397 470.685 539.282 470.671 539.169 470.644C534.186 469.479 530.723 466.897 528.81 462.969C524.321 453.641 530.62 440.139 530.91 439.565C531.082 439.204 531.39 438.925 531.768 438.791C532.145 438.657 532.56 438.678 532.922 438.851C533.283 439.023 533.562 439.331 533.696 439.708C533.83 440.086 533.809 440.501 533.637 440.863C533.576 440.989 527.664 453.647 531.531 461.666C533.027 464.767 535.754 466.746 539.857 467.699C540.228 467.774 540.558 467.985 540.78 468.291C541.003 468.597 541.102 468.975 541.059 469.351C541.016 469.727 540.833 470.073 540.547 470.32C540.26 470.567 539.891 470.698 539.513 470.686Z" fill="#262424"/>
<path d="M319.494 645.252C319.258 645.252 319.024 645.197 318.813 645.09C318.602 644.984 318.419 644.829 318.279 644.639C318.139 644.449 318.045 644.228 318.005 643.995C317.966 643.762 317.982 643.523 318.052 643.297L364.708 491.659C364.797 491.369 364.972 491.113 365.208 490.923C365.445 490.734 365.733 490.62 366.036 490.597L536.607 477.812L543.243 437.551C543.268 437.35 543.334 437.155 543.436 436.98C543.538 436.804 543.674 436.651 543.837 436.529C543.999 436.407 544.185 436.32 544.382 436.272C544.579 436.223 544.784 436.216 544.985 436.248C545.185 436.281 545.377 436.354 545.549 436.463C545.72 436.572 545.868 436.714 545.983 436.882C546.098 437.049 546.178 437.238 546.219 437.437C546.259 437.636 546.259 437.841 546.218 438.04L539.376 479.478C539.321 479.812 539.156 480.118 538.907 480.346C538.657 480.575 538.338 480.713 538 480.739L367.255 493.535L320.9 644.19C320.806 644.492 320.62 644.757 320.368 644.948C320.116 645.138 319.81 645.245 319.494 645.252Z" fill="#262424"/>
<path d="M329.451 653.197C329.341 653.197 329.232 653.185 329.125 653.161L293.829 645.317C293.448 645.222 293.119 644.981 292.913 644.647C292.706 644.313 292.638 643.912 292.723 643.528C292.808 643.145 293.039 642.809 293.367 642.594C293.696 642.378 294.095 642.299 294.481 642.373L329.776 650.216C330.139 650.297 330.458 650.509 330.674 650.811C330.891 651.112 330.988 651.483 330.947 651.852C330.907 652.221 330.732 652.563 330.456 652.811C330.18 653.059 329.822 653.196 329.451 653.197Z" fill="#262424"/>
<path d="M390.701 538.197L405.537 581.529L422.135 574.923L411.16 529.769L390.701 538.197Z" fill="white"/>
<path d="M405.538 583.334C405.163 583.336 404.796 583.221 404.489 583.004C404.182 582.788 403.95 582.482 403.825 582.128L388.989 538.796C388.839 538.359 388.861 537.881 389.052 537.461C389.243 537.04 389.587 536.708 390.014 536.533L410.474 528.086C410.715 527.987 410.975 527.94 411.235 527.951C411.496 527.961 411.751 528.027 411.984 528.145C412.217 528.263 412.421 528.43 412.583 528.634C412.745 528.839 412.861 529.076 412.923 529.329L423.898 574.483C424.002 574.908 423.948 575.356 423.747 575.744C423.547 576.132 423.212 576.434 422.806 576.595L406.208 583.232C405.993 583.308 405.766 583.343 405.538 583.334ZM392.971 539.218L406.642 579.141L420.007 573.808L409.901 532.243L392.971 539.218Z" fill="#262424"/>
<path d="M378.431 670.266L382.806 676.903L464.86 622.807C464.86 622.807 462.839 619.187 459.255 613.153C452.208 601.352 440.093 581.689 424.527 561.387L395.566 574.455C395.566 574.455 388.507 612.665 380.483 644.057C379.65 647.315 378.673 650.597 377.526 653.861C375.354 660.148 375.583 665.952 378.431 670.266Z" fill="#4C4C4C"/>
<path d="M405.318 628.509C405.207 628.509 405.096 628.498 404.987 628.478C404.753 628.435 404.53 628.346 404.331 628.216C404.131 628.086 403.96 627.919 403.825 627.723C403.691 627.527 403.596 627.306 403.547 627.073C403.498 626.841 403.495 626.6 403.539 626.367C409.089 596.64 407.05 576.501 407.026 576.289C406.975 575.809 407.118 575.329 407.422 574.954C407.725 574.579 408.166 574.34 408.646 574.289C409.126 574.239 409.606 574.381 409.981 574.685C410.356 574.989 410.596 575.429 410.646 575.909C410.736 576.748 412.764 596.779 407.116 627.024C407.04 627.444 406.817 627.823 406.488 628.094C406.159 628.366 405.745 628.513 405.318 628.509Z" fill="#262424"/>
<path d="M434.044 606.215C438.043 603.565 438.893 597.807 435.942 593.354C432.992 588.902 427.358 587.44 423.358 590.09C419.359 592.74 418.509 598.498 421.46 602.951C424.41 607.404 430.044 608.865 434.044 606.215Z" fill="white"/>
<path d="M432.76 612.218C431.836 612.217 430.915 612.097 430.021 611.862C427.151 611.083 424.669 609.272 423.053 606.776C421.394 604.306 420.707 601.311 421.122 598.365C421.306 596.95 421.793 595.591 422.55 594.381C423.307 593.171 424.316 592.138 425.509 591.354C426.701 590.569 428.048 590.051 429.459 589.834C430.87 589.618 432.311 589.708 433.684 590.1C436.543 590.899 439.017 592.705 440.651 595.183C442.285 597.662 442.969 600.647 442.577 603.59C442.388 605.005 441.899 606.363 441.144 607.574C440.389 608.785 439.384 609.821 438.197 610.613C436.582 611.672 434.691 612.23 432.76 612.218ZM430.95 593.358C429.725 593.35 428.524 593.705 427.499 594.377C426.739 594.891 426.096 595.561 425.614 596.342C425.133 597.123 424.823 597.998 424.706 598.908C424.423 600.969 424.911 603.061 426.075 604.785C427.201 606.534 428.933 607.805 430.938 608.357C431.819 608.618 432.747 608.684 433.656 608.549C434.565 608.414 435.434 608.082 436.201 607.576C436.968 607.07 437.616 606.403 438.098 605.621C438.58 604.838 438.886 603.96 438.993 603.047C439.254 600.987 438.768 598.901 437.625 597.167C436.482 595.433 434.757 594.166 432.76 593.593C432.17 593.437 431.561 593.358 430.95 593.358Z" fill="#262424"/>
<path d="M378.434 670.266L382.808 676.902L464.863 622.807C464.863 622.807 462.842 619.187 459.258 613.153L415.932 641.71C415.932 641.71 400.438 624.213 380.503 644.057C379.671 647.315 378.693 650.597 377.547 653.861C375.357 660.148 375.586 665.952 378.434 670.266Z" fill="white"/>
<path d="M382.809 678.718C382.509 678.717 382.215 678.643 381.952 678.501C381.689 678.358 381.465 678.153 381.3 677.903L376.926 671.267C373.813 666.548 373.439 660.159 375.864 653.287C376.944 650.228 377.922 646.982 378.772 643.634C378.852 643.316 379.017 643.026 379.249 642.795C386.127 635.953 393.325 632.58 400.607 632.816C408.348 633.057 413.929 637.323 416.204 639.41L458.305 611.656C458.51 611.522 458.741 611.432 458.982 611.389C459.224 611.347 459.472 611.354 459.71 611.411C459.949 611.467 460.174 611.572 460.371 611.718C460.568 611.863 460.733 612.048 460.857 612.26C464.417 618.215 466.468 621.913 466.492 621.949C466.719 622.353 466.783 622.827 466.671 623.276C466.559 623.725 466.279 624.114 465.889 624.363L383.834 678.458C383.526 678.645 383.169 678.735 382.809 678.718ZM382.151 645.003C381.3 648.279 380.341 651.459 379.273 654.47C377.234 660.25 377.463 665.505 379.943 669.251L383.321 674.38L462.474 622.209C461.708 620.857 460.417 618.619 458.691 615.711L416.946 643.229C416.582 643.47 416.144 643.571 415.712 643.515C415.279 643.458 414.882 643.248 414.593 642.922C414.538 642.861 408.903 636.671 400.42 636.424C394.351 636.267 388.178 639.145 382.151 645.003Z" fill="#262424"/>
<path d="M406.749 445.408L423.57 532.386L382.163 546.468C382.163 546.468 342.577 474.767 332.013 442.235C330.287 436.943 329.334 432.684 329.449 429.945C330.251 410.36 349.558 393.213 361.221 393.617C362.611 393.728 363.99 393.944 365.348 394.263C388.697 399.138 482.83 430.222 482.83 430.222L406.749 445.408Z" fill="#659673"/>
<path d="M382.162 547.975C381.893 547.975 381.628 547.903 381.395 547.766C381.163 547.629 380.971 547.433 380.841 547.197C380.606 546.774 357.383 504.643 341.919 470.663C341.832 470.482 341.782 470.285 341.772 470.084C341.761 469.884 341.791 469.683 341.86 469.494C341.928 469.305 342.033 469.132 342.17 468.984C342.306 468.837 342.47 468.718 342.653 468.634C342.836 468.551 343.034 468.505 343.235 468.5C343.436 468.494 343.635 468.528 343.823 468.601C344.01 468.674 344.181 468.783 344.326 468.922C344.47 469.062 344.585 469.229 344.665 469.414C358.68 500.184 379.103 537.754 382.874 544.632L421.838 531.359L405.264 445.684C405.227 445.489 405.228 445.288 405.269 445.093C405.309 444.898 405.388 444.714 405.5 444.549C405.612 444.385 405.755 444.245 405.922 444.136C406.089 444.027 406.275 443.953 406.471 443.917L480.996 429.044C481.19 429.005 481.39 429.004 481.584 429.041C481.779 429.079 481.964 429.155 482.129 429.264C482.295 429.373 482.437 429.514 482.548 429.678C482.658 429.842 482.736 430.027 482.776 430.221C482.815 430.415 482.816 430.615 482.778 430.809C482.741 431.004 482.665 431.189 482.556 431.354C482.447 431.52 482.306 431.662 482.142 431.773C481.978 431.883 481.793 431.961 481.599 432.001L408.51 446.589L425.048 532.095C425.117 532.453 425.054 532.823 424.871 533.138C424.688 533.453 424.397 533.691 424.052 533.808L382.645 547.866C382.491 547.929 382.328 547.966 382.162 547.975Z" fill="#262424"/>
<path d="M382.339 535.702C381.981 535.701 381.636 535.573 381.364 535.341C381.092 535.109 380.911 534.788 380.853 534.435C380.796 534.082 380.866 533.72 381.051 533.414C381.236 533.108 381.523 532.877 381.862 532.763L415.45 521.499C415.828 521.378 416.238 521.41 416.592 521.589C416.946 521.768 417.215 522.079 417.341 522.455C417.467 522.831 417.44 523.242 417.266 523.598C417.092 523.954 416.784 524.228 416.41 524.359L382.822 535.623C382.666 535.675 382.503 535.702 382.339 535.702Z" fill="#262424"/>
<path d="M403.458 523.032C403.099 523.032 402.751 522.904 402.478 522.671C402.205 522.437 402.024 522.114 401.968 521.759L387.089 428.042C387.048 427.785 387.074 427.521 387.165 427.277C387.256 427.033 387.408 426.817 387.607 426.649C387.807 426.481 388.046 426.368 388.302 426.321C388.558 426.273 388.822 426.292 389.068 426.377L428.098 439.819C428.477 439.949 428.788 440.225 428.963 440.585C429.139 440.944 429.164 441.359 429.034 441.738C428.903 442.116 428.628 442.427 428.268 442.603C427.908 442.778 427.493 442.803 427.115 442.673L390.462 430.051L404.942 521.288C404.973 521.484 404.965 521.684 404.919 521.877C404.873 522.069 404.789 522.251 404.672 522.411C404.556 522.571 404.409 522.707 404.24 522.811C404.071 522.914 403.883 522.983 403.687 523.014C403.611 523.026 403.535 523.032 403.458 523.032Z" fill="#262424"/>
<path d="M406.749 446.916C406.357 446.917 405.98 446.766 405.699 446.494L381.945 423.488C381.801 423.351 381.686 423.186 381.606 423.004C381.526 422.822 381.483 422.625 381.479 422.426C381.475 422.227 381.51 422.029 381.583 421.844C381.656 421.659 381.765 421.49 381.904 421.347C382.042 421.204 382.208 421.09 382.391 421.011C382.573 420.933 382.77 420.891 382.969 420.889C383.168 420.886 383.366 420.924 383.55 420.998C383.735 421.072 383.903 421.183 384.045 421.322L407.799 444.328C408.013 444.537 408.161 444.805 408.222 445.099C408.283 445.392 408.256 445.697 408.143 445.975C408.031 446.252 407.838 446.49 407.589 446.658C407.341 446.825 407.048 446.915 406.749 446.916Z" fill="#262424"/>
<path d="M289.171 167.687C288.875 168.332 288.813 169.059 288.995 169.745C289.176 170.43 289.59 171.032 290.166 171.446L316.804 190.547C317.32 190.917 317.679 191.466 317.81 192.087C317.941 192.708 317.834 193.356 317.51 193.902C317.329 194.209 317.086 194.474 316.797 194.681C316.507 194.888 316.177 195.031 315.828 195.102C315.479 195.172 315.119 195.169 314.771 195.091C314.424 195.013 314.097 194.863 313.811 194.65L305.28 188.273C304.571 187.746 303.707 187.469 302.824 187.486C301.941 187.502 301.088 187.811 300.399 188.363C299.664 188.951 299.16 189.779 298.975 190.702C298.791 191.624 298.938 192.583 299.391 193.407L306.704 206.741C308.983 210.896 312.711 214.068 317.178 215.653L322.717 217.619L328.943 226.887L347.846 222.862L341.209 209.185L336.539 186.638C336.185 184.926 335.394 183.336 334.244 182.02C333.094 180.704 331.623 179.707 329.975 179.126L292.96 166.07C292.24 165.819 291.453 165.846 290.752 166.145C290.052 166.444 289.488 166.994 289.171 167.687Z" fill="white"/>
<path d="M328.943 228.696C328.647 228.697 328.355 228.624 328.093 228.486C327.831 228.347 327.607 228.146 327.441 227.9L321.57 219.146L316.599 217.378C311.711 215.647 307.631 212.179 305.135 207.634L297.799 194.306C297.159 193.145 296.935 191.8 297.166 190.494C297.397 189.189 298.067 188.001 299.066 187.13C300.065 186.259 301.333 185.755 302.657 185.704C303.982 185.653 305.285 186.057 306.348 186.849L314.885 193.19C314.97 193.254 315.068 193.299 315.173 193.32C315.277 193.342 315.385 193.341 315.489 193.316C315.628 193.289 315.756 193.222 315.858 193.122C315.959 193.023 316.029 192.895 316.058 192.757C316.088 192.618 316.076 192.473 316.024 192.341C315.972 192.209 315.882 192.095 315.766 192.013L289.11 172.911C288.194 172.252 287.534 171.295 287.245 170.203C286.955 169.111 287.054 167.953 287.524 166.926C288.022 165.818 288.92 164.938 290.038 164.463C291.157 163.987 292.413 163.951 293.557 164.362L330.584 177.412C332.523 178.102 334.253 179.278 335.608 180.828C336.962 182.378 337.896 184.249 338.319 186.263L342.947 208.587L349.475 222.06C349.594 222.307 349.656 222.578 349.655 222.852C349.654 223.127 349.591 223.398 349.47 223.644C349.349 223.891 349.174 224.106 348.957 224.275C348.741 224.444 348.488 224.561 348.22 224.618L329.317 228.642C329.195 228.673 329.069 228.691 328.943 228.696ZM302.867 189.322C302.486 189.321 302.112 189.419 301.781 189.607C301.45 189.795 301.175 190.066 300.981 190.393C300.787 190.721 300.682 191.093 300.676 191.474C300.67 191.854 300.764 192.229 300.948 192.562L308.297 205.896C310.363 209.66 313.74 212.534 317.787 213.969L323.326 215.936C323.692 216.065 324.008 216.308 324.225 216.63L329.776 224.865L345.221 221.577L339.586 209.993C339.521 209.859 339.472 209.717 339.441 209.57L334.771 187.024C334.476 185.619 333.825 184.314 332.881 183.233C331.936 182.152 330.73 181.332 329.378 180.851L292.362 167.759C292.07 167.654 291.748 167.664 291.462 167.785C291.175 167.907 290.945 168.133 290.818 168.416C290.698 168.679 290.672 168.976 290.746 169.255C290.82 169.534 290.988 169.78 291.222 169.949L317.86 189.051C318.797 189.731 319.425 190.755 319.607 191.899C319.788 193.042 319.508 194.211 318.828 195.148C318.148 196.084 317.124 196.713 315.98 196.894C314.837 197.076 313.668 196.796 312.731 196.116L304.194 189.757C303.811 189.471 303.345 189.318 302.867 189.322Z" fill="#262424"/>
<path d="M449.516 222.267L446.801 293.462C446.801 293.462 402.081 306.132 369.971 313.318C368.548 313.639 367.152 313.947 365.784 314.241C358.395 315.865 350.665 314.683 344.099 310.924C337.532 307.165 332.6 301.097 330.26 293.902C320.558 264.055 315.713 225.435 315.713 225.435C315.713 225.435 330.658 215.027 349.663 218.044L369.573 255.149L449.516 222.267Z" fill="#DE9244"/>
<path d="M362.632 286.823C362.405 286.823 362.18 286.772 361.976 286.674C361.771 286.575 361.592 286.432 361.45 286.255C361.309 286.077 361.209 285.87 361.159 285.649C361.108 285.427 361.109 285.198 361.159 284.976L367.193 258.731C367.231 258.532 367.31 258.344 367.423 258.176C367.536 258.008 367.682 257.865 367.851 257.754C368.021 257.644 368.211 257.569 368.411 257.534C368.61 257.499 368.814 257.504 369.011 257.549C369.209 257.594 369.395 257.679 369.559 257.798C369.723 257.917 369.861 258.067 369.965 258.24C370.07 258.414 370.138 258.606 370.167 258.807C370.195 259.007 370.183 259.211 370.131 259.407L364.098 285.652C364.021 285.984 363.835 286.281 363.569 286.493C363.303 286.706 362.972 286.822 362.632 286.823Z" fill="#262424"/>
<path d="M323.315 241.471C322.975 241.471 322.644 241.356 322.378 241.145C322.111 240.933 321.924 240.638 321.846 240.307C321.769 239.975 321.805 239.628 321.951 239.32C322.096 239.012 322.34 238.762 322.645 238.611C323.17 238.352 335.72 232.252 353.211 231.606C353.611 231.592 354 231.737 354.293 232.01C354.586 232.283 354.759 232.66 354.773 233.061C354.788 233.461 354.642 233.85 354.37 234.143C354.097 234.436 353.719 234.609 353.319 234.623C343.205 234.98 333.251 237.252 323.985 241.32C323.776 241.422 323.547 241.473 323.315 241.471Z" fill="#262424"/>
<path d="M325.524 233.115C327.69 233.115 329.446 231.359 329.446 229.193C329.446 227.027 327.69 225.271 325.524 225.271C323.358 225.271 321.602 227.027 321.602 229.193C321.602 231.359 323.358 233.115 325.524 233.115Z" fill="white"/>
<path d="M325.521 234.923C324.387 234.923 323.279 234.587 322.336 233.957C321.394 233.328 320.659 232.433 320.225 231.385C319.792 230.338 319.678 229.185 319.899 228.074C320.12 226.962 320.666 225.94 321.468 225.139C322.269 224.337 323.291 223.791 324.403 223.57C325.514 223.349 326.667 223.462 327.714 223.896C328.762 224.33 329.657 225.065 330.287 226.007C330.916 226.95 331.253 228.058 331.253 229.192C331.251 230.711 330.647 232.168 329.572 233.243C328.497 234.317 327.04 234.922 325.521 234.923ZM325.521 227.08C325.103 227.08 324.695 227.204 324.348 227.436C324 227.668 323.73 227.998 323.57 228.384C323.41 228.769 323.368 229.194 323.45 229.604C323.531 230.013 323.732 230.39 324.028 230.685C324.323 230.98 324.699 231.181 325.109 231.263C325.518 231.344 325.943 231.303 326.329 231.143C326.715 230.983 327.045 230.712 327.277 230.365C327.509 230.018 327.633 229.609 327.633 229.192C327.633 228.632 327.41 228.095 327.014 227.699C326.618 227.303 326.081 227.08 325.521 227.08Z" fill="#262424"/>
<path d="M595.825 236.445C595.825 236.445 549.971 205.977 516.183 206.58C482.396 207.183 449.514 222.267 449.514 222.267C422.062 279.584 413.549 407.849 413.549 407.849C413.549 407.849 428.632 413.044 471.349 426.456C494.885 435.772 519.431 442.298 544.486 445.902L548.776 420.356C548.935 419.412 549.452 418.567 550.22 417.996C550.988 417.424 551.947 417.172 552.897 417.291C553.382 417.352 553.851 417.509 554.276 417.751C554.701 417.994 555.073 418.319 555.372 418.706C555.671 419.094 555.89 419.537 556.017 420.009C556.144 420.482 556.177 420.975 556.113 421.46L552.74 446.939C567.974 448.58 576.554 447.971 576.554 447.971C596.47 377.38 595.825 236.445 595.825 236.445Z" fill="#DE9244"/>
<path d="M428.515 294.679C428.291 294.68 428.069 294.631 427.866 294.535C427.663 294.44 427.484 294.3 427.342 294.127C427.2 293.953 427.098 293.751 427.044 293.533C426.99 293.315 426.986 293.088 427.03 292.869C432.666 264.433 439.176 241.748 446.386 225.439C446.456 225.245 446.565 225.067 446.706 224.916C446.848 224.765 447.019 224.645 447.209 224.564C447.398 224.482 447.603 224.44 447.81 224.44C448.016 224.441 448.221 224.484 448.41 224.567C448.599 224.65 448.77 224.771 448.91 224.922C449.051 225.074 449.159 225.252 449.228 225.447C449.297 225.642 449.325 225.849 449.31 226.055C449.295 226.262 449.239 226.463 449.143 226.646C442.024 242.749 435.58 265.224 429.987 293.442C429.924 293.787 429.742 294.1 429.473 294.325C429.205 294.551 428.866 294.676 428.515 294.679Z" fill="#262424"/>
<path d="M551.799 222.919C545.277 236.832 533.698 242.172 526.501 244.181C524.992 234.063 520.352 221.254 520.352 221.254C514.494 228.796 511.194 238.914 510.313 243.577C492.303 237.996 490.801 220.463 490.801 220.463C493.582 203.033 509.064 190.338 521.969 191.195C550.483 193.053 551.799 222.919 551.799 222.919Z" fill="white"/>
<path d="M526.498 245.99C526.061 245.994 525.637 245.841 525.304 245.557C524.971 245.273 524.753 244.878 524.688 244.445C523.681 237.7 521.219 229.615 519.759 225.18C516.136 230.925 513.534 237.253 512.066 243.884C512.019 244.135 511.919 244.373 511.774 244.583C511.628 244.793 511.439 244.969 511.221 245.101C511.002 245.232 510.758 245.316 510.504 245.347C510.251 245.377 509.993 245.354 509.75 245.278C490.799 239.401 488.983 220.776 488.97 220.589C488.953 220.443 488.953 220.295 488.97 220.149C492.041 200.914 508.881 188.485 522.046 189.378C537.63 190.41 545.389 199.508 549.154 206.954C551.638 211.92 553.138 217.321 553.57 222.858C553.584 223.151 553.526 223.443 553.401 223.708C550.877 229.118 547.201 233.911 542.632 237.753C538.062 241.594 532.708 244.391 526.945 245.948C526.798 245.98 526.648 245.994 526.498 245.99ZM520.35 219.443C520.724 219.444 521.088 219.56 521.392 219.776C521.697 219.992 521.927 220.297 522.052 220.649C522.233 221.144 526.185 232.113 527.946 241.863C532.731 240.301 537.149 237.785 540.934 234.466C544.718 231.148 547.789 227.096 549.962 222.556C549.679 218.851 546.873 194.621 521.841 192.956C510.287 192.19 495.408 203.78 492.621 220.468C492.844 222.381 494.907 235.763 508.989 241.157C510.281 236.035 513.454 227.153 518.92 220.118C519.091 219.905 519.307 219.732 519.554 219.614C519.801 219.496 520.071 219.435 520.344 219.437L520.35 219.443Z" fill="#262424"/>
<path d="M618.511 313.768C618.42 338.475 617.69 370.193 612.628 391.364C609.418 404.758 604.483 413.941 596.869 414.442C590.588 414.858 584 413.537 577.423 411.069C549.181 400.438 516.16 366.017 512.866 359.182C508.793 350.777 515.279 329.407 525.234 327.808C535.189 326.209 563.848 342.288 563.848 342.288C563.848 342.288 576.946 273.597 580.005 259.564C583.064 245.53 595.825 236.401 595.825 236.401C613.865 244.516 618.662 273.465 618.511 313.768Z" fill="#DE9244"/>
<path d="M525.006 363.375C526.912 363.001 528.155 361.153 527.781 359.246C527.407 357.339 525.558 356.097 523.651 356.471C521.745 356.845 520.502 358.694 520.876 360.601C521.251 362.507 523.099 363.749 525.006 363.375Z" fill="white"/>
<path d="M524.327 365.252C522.958 365.256 521.639 364.733 520.644 363.791C519.65 362.849 519.056 361.56 518.986 360.192C518.915 358.824 519.374 357.481 520.267 356.442C521.16 355.403 522.418 354.748 523.781 354.611C525.144 354.475 526.508 354.869 527.589 355.71C528.67 356.552 529.385 357.777 529.587 359.132C529.789 360.487 529.462 361.867 528.674 362.988C527.886 364.108 526.697 364.882 525.353 365.149C525.015 365.217 524.672 365.251 524.327 365.252ZM524.327 358.211C524.075 358.211 523.825 358.267 523.596 358.374C523.368 358.482 523.166 358.639 523.005 358.834C522.844 359.029 522.728 359.257 522.666 359.502C522.603 359.747 522.596 360.002 522.644 360.25C522.687 360.471 522.773 360.68 522.898 360.867C523.022 361.054 523.182 361.215 523.368 361.34C523.554 361.465 523.763 361.553 523.983 361.597C524.203 361.641 524.43 361.642 524.65 361.599C524.87 361.556 525.08 361.469 525.267 361.345C525.454 361.221 525.615 361.061 525.74 360.875C525.865 360.689 525.952 360.48 525.997 360.26C526.041 360.04 526.042 359.813 525.999 359.593C525.923 359.205 525.716 358.856 525.413 358.604C525.109 358.353 524.728 358.214 524.333 358.211H524.327Z" fill="#262424"/>
<path d="M574.925 411.907C574.684 411.905 574.446 411.856 574.225 411.762C546.9 400.268 514.832 367.44 511.23 360.013C508.165 353.684 510.403 342.8 514.072 335.771C516.992 330.166 520.853 326.721 524.932 326.063C533.934 324.621 555.256 335.614 562.52 339.542C564.885 327.155 575.516 271.612 578.207 259.219C580.144 250.344 585.695 243.375 590.008 239.091C590.349 238.753 590.811 238.564 591.291 238.565C591.771 238.567 592.231 238.76 592.57 239.1C592.908 239.441 593.097 239.903 593.096 240.383C593.094 240.863 592.901 241.323 592.561 241.662C588.591 245.601 583.51 251.979 581.743 259.991C578.726 273.868 565.73 341.979 565.597 342.649C565.543 342.931 565.423 343.196 565.246 343.423C565.07 343.649 564.842 343.83 564.581 343.951C564.32 344.072 564.035 344.129 563.748 344.118C563.461 344.106 563.181 344.027 562.93 343.886C555.087 339.5 533.149 328.386 525.487 329.617C522.555 330.087 519.635 332.857 517.251 337.424C513.547 344.531 512.292 353.95 514.458 358.414C517.318 364.315 547.732 396.69 575.595 408.407C575.991 408.56 576.321 408.846 576.527 409.217C576.733 409.588 576.803 410.02 576.723 410.437C576.643 410.854 576.419 411.23 576.091 411.498C575.762 411.767 575.349 411.911 574.925 411.907Z" fill="#262424"/>
<path d="M532.27 371.291C531.914 371.291 531.566 371.186 531.27 370.989C530.974 370.792 530.742 370.513 530.604 370.185C530.465 369.858 530.426 369.497 530.492 369.147C530.558 368.798 530.725 368.475 530.972 368.22C545.278 353.535 536.915 331.35 536.831 331.127C536.657 330.679 536.669 330.18 536.863 329.74C537.057 329.301 537.418 328.956 537.866 328.783C538.314 328.609 538.812 328.62 539.252 328.814C539.692 329.009 540.036 329.369 540.21 329.817C540.596 330.813 549.483 354.416 533.573 370.748C533.403 370.921 533.2 371.059 532.976 371.152C532.752 371.245 532.512 371.292 532.27 371.291Z" fill="#262424"/>
<path d="M591.676 363.561C591.379 363.561 591.086 363.488 590.824 363.348C590.562 363.208 590.339 363.006 590.173 362.759C584.83 355.769 577.453 350.605 569.057 347.977C568.645 347.847 568.293 347.573 568.065 347.206C567.838 346.84 567.748 346.403 567.814 345.977C567.88 345.55 568.096 345.16 568.423 344.879C568.75 344.597 569.168 344.442 569.6 344.441C570.203 344.441 584.007 344.502 595.543 349.829C595.759 349.929 595.953 350.07 596.115 350.245C596.276 350.42 596.401 350.625 596.483 350.848C596.565 351.072 596.603 351.309 596.593 351.547C596.583 351.784 596.527 352.018 596.427 352.234C596.327 352.449 596.186 352.644 596.011 352.805C595.836 352.966 595.631 353.091 595.408 353.173C595.185 353.256 594.948 353.293 594.71 353.283C594.472 353.274 594.239 353.217 594.023 353.117C589.641 351.189 585.027 349.838 580.297 349.099C588.744 354.21 592.967 360.406 593.214 360.756C593.395 361.031 593.498 361.349 593.511 361.678C593.525 362.007 593.448 362.333 593.29 362.622C593.132 362.91 592.898 363.15 592.613 363.316C592.329 363.481 592.005 363.566 591.676 363.561Z" fill="#262424"/>
<path d="M504.496 277.091L465.616 284.719C463.709 285.093 462.467 286.942 462.841 288.848L476.277 357.331C476.651 359.238 478.5 360.48 480.406 360.106L519.286 352.478C521.193 352.104 522.435 350.255 522.061 348.349L508.625 279.866C508.251 277.959 506.402 276.717 504.496 277.091Z" fill="white"/>
<path d="M479.716 361.982C478.482 361.979 477.287 361.548 476.336 360.762C475.384 359.977 474.734 358.885 474.497 357.675L461.06 289.195C460.926 288.507 460.928 287.799 461.067 287.112C461.207 286.424 461.48 285.771 461.873 285.19C462.265 284.609 462.769 284.11 463.354 283.724C463.939 283.338 464.595 283.071 465.284 282.939L504.163 275.312C504.851 275.178 505.559 275.181 506.246 275.321C506.933 275.461 507.586 275.734 508.167 276.127C508.748 276.519 509.246 277.022 509.633 277.607C510.019 278.192 510.287 278.847 510.42 279.536L523.856 348.015C523.99 348.703 523.987 349.411 523.848 350.098C523.708 350.785 523.434 351.438 523.042 352.019C522.65 352.6 522.147 353.098 521.562 353.485C520.977 353.871 520.321 354.139 519.633 354.272L480.754 361.898C480.411 361.96 480.064 361.988 479.716 361.982ZM505.171 278.836C505.059 278.835 504.948 278.845 504.839 278.866L465.96 286.492C465.739 286.536 465.529 286.622 465.343 286.746C465.156 286.871 464.995 287.031 464.87 287.218C464.745 287.404 464.658 287.614 464.614 287.834C464.57 288.054 464.57 288.281 464.614 288.501L478.051 356.981C478.139 357.425 478.401 357.816 478.777 358.068C479.154 358.32 479.615 358.413 480.06 358.326L518.939 350.7C519.383 350.611 519.775 350.35 520.027 349.973C520.279 349.597 520.372 349.136 520.285 348.691L506.848 280.211C506.77 279.824 506.561 279.475 506.255 279.224C505.949 278.974 505.566 278.836 505.171 278.836Z" fill="#262424"/>
<path d="M474.781 296.952C476.688 296.577 477.93 294.729 477.556 292.822C477.182 290.916 475.333 289.673 473.427 290.047C471.52 290.421 470.278 292.27 470.652 294.177C471.026 296.083 472.875 297.326 474.781 296.952Z" fill="white"/>
<path d="M474.092 298.836C473.084 298.833 472.096 298.543 471.246 298.001C470.395 297.459 469.716 296.686 469.287 295.773C468.858 294.86 468.697 293.844 468.823 292.843C468.949 291.842 469.356 290.897 469.998 290.119C470.64 289.341 471.49 288.761 472.448 288.446C473.407 288.132 474.435 288.096 475.413 288.343C476.391 288.59 477.279 289.109 477.973 289.841C478.668 290.573 479.14 291.487 479.335 292.476C479.605 293.866 479.311 295.306 478.519 296.479C477.727 297.652 476.502 298.463 475.112 298.733C474.776 298.8 474.435 298.834 474.092 298.836ZM474.092 291.795C473.981 291.794 473.87 291.804 473.761 291.825C473.332 291.907 472.951 292.15 472.697 292.505C472.443 292.86 472.335 293.298 472.395 293.73C472.455 294.163 472.679 294.555 473.02 294.827C473.362 295.099 473.794 295.229 474.229 295.191C474.664 295.153 475.067 294.949 475.356 294.622C475.645 294.295 475.797 293.87 475.781 293.434C475.765 292.998 475.582 292.584 475.27 292.279C474.958 291.974 474.541 291.801 474.104 291.795H474.092Z" fill="#262424"/>
<path d="M491.713 309.696C485.492 311.506 486.132 321.008 493.824 321.008C501.517 321.008 524.293 319.651 520.975 310.45C517.656 301.249 504.063 306.076 491.713 309.696Z" fill="white"/>
<path d="M493.805 322.819C488.881 322.819 486.208 319.573 485.75 316.357C485.484 314.537 485.887 312.682 486.886 311.137C487.885 309.592 489.411 308.463 491.18 307.959L493.847 307.168C505.63 303.663 518.994 299.687 522.656 309.835C523.04 310.791 523.177 311.827 523.056 312.85C522.934 313.872 522.559 314.848 521.963 315.688C517.202 322.475 497.672 322.819 493.805 322.819ZM492.2 311.434C491.263 311.688 490.453 312.279 489.925 313.092C489.396 313.906 489.186 314.886 489.334 315.844C489.563 317.467 490.86 319.199 493.805 319.199C502.354 319.199 516.128 317.709 519.006 313.606C519.267 313.242 519.427 312.815 519.47 312.369C519.514 311.923 519.439 311.474 519.254 311.066C516.931 304.628 507.694 306.843 494.885 310.644L492.2 311.44V311.434Z" fill="#262424"/>
<path d="M495.332 320.406C489.346 322.82 489.449 333.076 492.616 344.087C495.784 355.098 503.627 360.378 514.638 357.663C525.649 354.948 532.135 348.612 528.666 333.076C525.197 317.54 520.503 310.3 495.332 320.406Z" fill="white"/>
<path d="M509.211 360.164C500.408 360.164 493.735 354.631 490.845 344.586C486.857 330.709 488.233 321.291 494.628 318.727C507.353 313.622 515.48 312.639 520.976 315.535C526.256 318.316 528.5 324.157 530.401 332.682C533.713 347.524 528.832 356.019 515.039 359.422C513.134 359.904 511.177 360.153 509.211 360.164ZM495.974 322.087C491.708 323.801 491.057 332.241 494.327 343.59C497.307 353.956 504.354 358.33 514.177 355.911C525.936 353.008 529.737 346.299 526.847 333.478C525.17 325.961 523.317 320.874 519.269 318.745C514.852 316.422 507.443 317.484 495.956 322.093L495.974 322.087Z" fill="#262424"/>
<path d="M539.822 156.419L538.772 173.958L537.022 203.962C526.693 210.696 516.847 211.124 507.604 203.703L509.414 189.826L512.201 168.769L539.822 156.419Z" fill="white"/>
<path d="M521.813 210.947C516.449 210.947 511.327 208.998 506.476 205.106C506.233 204.912 506.044 204.658 505.928 204.37C505.812 204.081 505.772 203.768 505.812 203.459L510.434 168.495C510.474 168.189 510.592 167.897 510.777 167.649C510.962 167.401 511.207 167.204 511.49 167.078L539.086 154.763C539.371 154.636 539.683 154.584 539.993 154.613C540.302 154.642 540.6 154.75 540.856 154.927C541.112 155.104 541.318 155.344 541.454 155.624C541.59 155.904 541.651 156.214 541.632 156.525L538.839 204.062C538.822 204.346 538.74 204.621 538.597 204.866C538.454 205.111 538.256 205.32 538.018 205.474C532.413 209.125 527.001 210.947 521.813 210.947ZM509.541 202.898C517.384 208.787 525.831 208.793 535.279 202.898L537.843 159.252L513.891 169.943L509.541 202.898Z" fill="#262424"/>
<path d="M530.29 160.667C529.898 168.595 529.753 195.619 508.377 197.851L512.226 168.734L530.29 160.667Z" fill="#262424"/>
<path d="M486.511 156.851C487.965 171.301 492.158 188.581 509.492 185.89C530.102 182.692 543.424 168.122 543.617 148.513C543.81 128.904 534.766 117.845 511.284 120.09C509.287 120.276 507.309 120.63 505.371 121.145C491.856 124.766 485.063 135.982 485.901 149.122C486.052 151.5 486.227 154.13 486.511 156.851Z" fill="white"/>
<path d="M506.042 187.978C502.124 188.071 498.297 186.79 495.224 184.358C486.584 177.42 484.967 162.602 484.092 149.25C483.579 141.201 485.727 134.021 490.3 128.489C495.127 122.666 502.313 119.143 511.11 118.298C511.59 118.253 512.068 118.4 512.44 118.707C512.812 119.014 513.046 119.456 513.092 119.936C513.137 120.416 512.99 120.895 512.683 121.267C512.376 121.638 511.934 121.873 511.453 121.918C496.068 123.39 486.716 134.033 487.706 149.032C488.309 158.119 489.371 175.03 497.492 181.547C500.581 184.026 504.419 184.871 509.215 184.123C516.884 182.916 523.502 180.159 528.884 175.881C529.26 175.583 529.739 175.446 530.216 175.501C530.693 175.556 531.129 175.798 531.427 176.174C531.726 176.55 531.862 177.029 531.808 177.506C531.753 177.983 531.511 178.418 531.135 178.717C525.336 183.326 517.952 186.434 509.77 187.701C508.536 187.889 507.29 187.982 506.042 187.978Z" fill="#262424"/>
<path d="M549.749 152.205C547.765 155.078 545.534 157.773 543.083 160.259L532.687 160.905L530.473 153.55C530.473 153.55 523.878 153.255 522.515 148.808C522.48 148.705 522.452 148.6 522.43 148.494C522.08 147.034 520.729 140.53 521.718 130.43C521.718 130.43 505.862 137.429 497.235 138.34C494.133 138.672 490.507 137.477 487.135 135.806C480.377 132.469 474.464 121.458 475.671 114.019V113.874C477.529 102.966 483.213 110.526 483.213 110.526C483.213 110.526 484.842 101.741 490.338 101.114C495.835 100.486 499.34 108.595 499.34 108.595C509.901 106.134 520.83 105.678 531.559 107.25C552.827 110.496 547.529 125.145 547.529 125.145C547.529 125.145 563.168 130.165 549.749 152.205Z" fill="#262424"/>
<path d="M534.949 159.783C534.056 151.59 539.818 143.982 548.005 143.04C549.74 142.832 551.499 142.957 553.188 143.408C563.336 146.148 560.669 169.774 535.842 167.97L534.949 159.783Z" fill="white"/>
<path d="M538.433 169.882C537.552 169.882 536.643 169.848 535.706 169.78C535.226 169.744 534.779 169.52 534.465 169.156C534.15 168.791 533.993 168.317 534.028 167.837C534.063 167.357 534.288 166.91 534.652 166.596C535.017 166.281 535.491 166.124 535.971 166.159C549.613 167.155 555.694 160.198 556.756 153.942C557.48 149.676 555.779 145.978 552.714 145.151C551.245 144.759 549.716 144.65 548.207 144.831C541.093 145.652 535.947 152.264 536.743 159.583C536.769 159.821 536.748 160.061 536.681 160.291C536.613 160.52 536.502 160.734 536.352 160.92C536.202 161.107 536.017 161.262 535.807 161.376C535.597 161.491 535.367 161.563 535.129 161.589C534.892 161.615 534.651 161.594 534.422 161.526C534.192 161.459 533.978 161.348 533.792 161.198C533.606 161.048 533.451 160.863 533.336 160.653C533.221 160.443 533.149 160.213 533.123 159.975C532.116 150.69 538.686 142.285 547.772 141.241C549.736 141.009 551.727 141.152 553.637 141.664C558.542 142.991 561.348 148.409 560.274 154.557C558.995 162.401 551.73 169.882 538.433 169.882Z" fill="#262424"/>
<path d="M627.409 764.669H91.6409C91.1608 764.669 90.7004 764.478 90.361 764.139C90.0215 763.8 89.8308 763.339 89.8308 762.859C89.8308 762.379 90.0215 761.919 90.361 761.579C90.7004 761.24 91.1608 761.049 91.6409 761.049H627.409C627.889 761.049 628.349 761.24 628.689 761.579C629.028 761.919 629.219 762.379 629.219 762.859C629.219 763.339 629.028 763.8 628.689 764.139C628.349 764.478 627.889 764.669 627.409 764.669Z" fill="#262424"/>
<path d="M75.4062 764.669H47.0129C46.5329 764.669 46.0725 764.478 45.733 764.139C45.3936 763.8 45.2029 763.339 45.2029 762.859C45.2029 762.379 45.3936 761.919 45.733 761.579C46.0725 761.24 46.5329 761.049 47.0129 761.049H75.4062C75.8863 761.049 76.3467 761.24 76.6861 761.579C77.0256 761.919 77.2163 762.379 77.2163 762.859C77.2163 763.339 77.0256 763.8 76.6861 764.139C76.3467 764.478 75.8863 764.669 75.4062 764.669Z" fill="#262424"/>
<path d="M653.713 764.669H639.529C639.048 764.669 638.588 764.478 638.249 764.139C637.909 763.8 637.719 763.339 637.719 762.859C637.719 762.379 637.909 761.919 638.249 761.579C638.588 761.24 639.048 761.049 639.529 761.049H653.725C654.205 761.051 654.665 761.243 655.003 761.583C655.342 761.924 655.531 762.385 655.529 762.865C655.528 763.345 655.335 763.805 654.995 764.143C654.654 764.482 654.193 764.671 653.713 764.669Z" fill="#262424"/>
<path d="M479.988 787.795H239.062C238.582 787.795 238.121 787.604 237.782 787.265C237.442 786.926 237.252 786.465 237.252 785.985C237.252 785.505 237.442 785.045 237.782 784.705C238.121 784.366 238.582 784.175 239.062 784.175H479.988C480.468 784.175 480.929 784.366 481.268 784.705C481.608 785.045 481.798 785.505 481.798 785.985C481.798 786.465 481.608 786.926 481.268 787.265C480.929 787.604 480.468 787.795 479.988 787.795Z" fill="#262424"/>
<path d="M208.426 787.795H157.745C157.265 787.795 156.805 787.604 156.466 787.265C156.126 786.925 155.935 786.465 155.935 785.985C155.935 785.505 156.126 785.045 156.466 784.705C156.805 784.366 157.265 784.175 157.745 784.175H208.426C208.906 784.175 209.367 784.366 209.706 784.705C210.045 785.045 210.236 785.505 210.236 785.985C210.236 786.465 210.045 786.925 209.706 787.265C209.367 787.604 208.906 787.795 208.426 787.795Z" fill="#262424"/>
<path d="M532.661 787.795H516.003C515.523 787.795 515.063 787.604 514.723 787.265C514.384 786.925 514.193 786.465 514.193 785.985C514.193 785.505 514.384 785.045 514.723 784.705C515.063 784.366 515.523 784.175 516.003 784.175H532.661C533.141 784.175 533.602 784.366 533.941 784.705C534.281 785.045 534.471 785.505 534.471 785.985C534.471 786.465 534.281 786.925 533.941 787.265C533.602 787.604 533.141 787.795 532.661 787.795Z" fill="#262424"/>
<path d="M299.551 428.321H89.588C87.0919 428.258 84.6924 427.343 82.7889 425.727C80.8853 424.111 79.5927 421.892 79.1261 419.439L22.4119 64.3724C21.6276 59.4672 25.0425 55.4912 30.0381 55.4912H240.001C242.497 55.5534 244.897 56.4686 246.8 58.0845C248.704 59.7004 249.997 61.9195 250.463 64.3724L307.177 419.439C307.962 424.338 304.547 428.321 299.551 428.321Z" fill="white"/>
<path d="M299.553 430.131H89.5902C83.7499 430.131 78.2594 425.461 77.3424 419.723L20.6282 64.6563C20.3684 63.2917 20.419 61.8861 20.7765 60.5437C21.1339 59.2013 21.789 57.9567 22.693 56.9019C23.597 55.8472 24.7269 55.0095 25.9988 54.451C27.2707 53.8925 28.652 53.6274 30.0403 53.6755H240.003C245.844 53.6755 251.334 58.3453 252.251 64.0831L308.966 419.15C309.225 420.515 309.175 421.92 308.817 423.263C308.46 424.605 307.805 425.85 306.901 426.904C305.997 427.959 304.867 428.797 303.595 429.355C302.323 429.914 300.942 430.179 299.553 430.131ZM30.0403 57.2955C29.1725 57.268 28.3093 57.4315 27.5117 57.7745C26.7141 58.1176 26.0017 58.6317 25.4248 59.2805C24.881 59.9468 24.4909 60.7248 24.2823 61.5591C24.0738 62.3934 24.0518 63.2635 24.2181 64.1072L80.9323 419.174C81.3182 421.209 82.39 423.049 83.9689 424.388C85.5478 425.728 87.5383 426.486 89.6083 426.535H299.571C300.439 426.563 301.303 426.399 302.1 426.056C302.898 425.713 303.61 425.199 304.187 424.55C304.731 423.884 305.121 423.106 305.329 422.271C305.538 421.437 305.56 420.567 305.394 419.723L248.68 64.6563C248.294 62.622 247.222 60.7815 245.643 59.442C244.064 58.1024 242.073 57.3448 240.003 57.2955H30.0403Z" fill="#262424"/>
<path d="M277.219 396.134H242.829C240.332 396.072 237.933 395.157 236.029 393.541C234.126 391.925 232.833 389.706 232.367 387.253L222.188 323.588C221.404 318.683 224.819 314.707 229.814 314.707H264.205C266.701 314.769 269.101 315.684 271.004 317.3C272.908 318.916 274.2 321.135 274.667 323.588L284.845 387.253C285.63 392.158 282.215 396.134 277.219 396.134Z" fill="#DE9244"/>
<path d="M206.635 396.134H172.245C169.749 396.072 167.349 395.157 165.445 393.541C163.542 391.925 162.249 389.706 161.783 387.253L151.604 323.588C150.82 318.683 154.235 314.707 159.231 314.707H193.621C196.117 314.769 198.517 315.684 200.42 317.3C202.324 318.916 203.616 321.135 204.083 323.588L214.261 387.253C215.04 392.158 211.631 396.134 206.635 396.134Z" fill="#659673"/>
<path d="M136.042 396.134H101.652C99.1557 396.072 96.7562 395.157 94.8527 393.541C92.9492 391.925 91.6565 389.706 91.1899 387.253L81.0115 323.588C80.2272 318.683 83.6421 314.707 88.6378 314.707H123.028C125.524 314.769 127.924 315.684 129.827 317.3C131.731 318.916 133.024 321.135 133.49 323.588L143.669 387.253C144.453 392.158 141.038 396.134 136.042 396.134Z" fill="white"/>
<path d="M136.042 397.948H101.651C95.8107 397.948 90.3203 393.278 89.4032 387.541L79.2248 323.882C78.965 322.517 79.0157 321.112 79.3731 319.769C79.7306 318.427 80.3856 317.182 81.2896 316.128C82.1937 315.073 83.3235 314.235 84.5955 313.677C85.8674 313.118 87.2487 312.853 88.637 312.901H123.027C128.868 312.901 134.358 317.571 135.275 323.309L145.454 386.967C145.714 388.332 145.663 389.738 145.305 391.08C144.948 392.422 144.293 393.667 143.389 394.722C142.485 395.776 141.355 396.614 140.083 397.173C138.811 397.731 137.43 397.996 136.042 397.948ZM88.637 316.497C87.7692 316.469 86.9059 316.633 86.1084 316.976C85.3108 317.319 84.5983 317.833 84.0214 318.482C83.4776 319.148 83.0876 319.926 82.879 320.761C82.6704 321.595 82.6485 322.465 82.8147 323.309L92.981 386.967C93.367 389.002 94.4388 390.842 96.0177 392.182C97.5966 393.521 99.5871 394.279 101.657 394.328H136.048C136.915 394.356 137.779 394.192 138.576 393.849C139.374 393.506 140.086 392.992 140.663 392.343C141.207 391.677 141.597 390.899 141.806 390.065C142.014 389.23 142.036 388.36 141.87 387.516L131.716 323.882C131.331 321.853 130.263 320.016 128.691 318.677C127.118 317.338 125.134 316.577 123.07 316.521H88.6792L88.637 316.497Z" fill="#262424"/>
<path d="M283.716 272.546H55.6643L27.2468 94.5967H255.298L283.716 272.546Z" fill="white"/>
<path d="M283.714 274.357H55.6502C55.2154 274.362 54.7933 274.211 54.4609 273.931C54.1286 273.651 53.9082 273.26 53.8401 272.831L25.4589 94.8808C25.4176 94.6205 25.4336 94.3543 25.5059 94.1008C25.5782 93.8474 25.7049 93.6127 25.8773 93.4133C26.0497 93.214 26.2635 93.0546 26.5039 92.9465C26.7443 92.8383 27.0054 92.784 27.2689 92.7872H255.332C255.767 92.7819 256.189 92.9332 256.522 93.2135C256.854 93.4937 257.074 93.8843 257.142 94.3137L285.566 272.263C285.608 272.527 285.591 272.797 285.516 273.054C285.442 273.311 285.311 273.547 285.134 273.748C284.957 273.948 284.738 274.106 284.492 274.212C284.247 274.317 283.981 274.367 283.714 274.357ZM57.2068 270.737H281.59L253.752 96.4073H29.3686L57.2068 270.737Z" fill="#262424"/>
<path d="M156.904 236.54C119.6 219.55 79.6766 236.54 79.6766 236.54L63.9414 138.135C63.9414 138.135 103.865 121.145 141.169 138.135L156.904 236.54Z" fill="#DE9244"/>
<path d="M170.983 236.54C202.863 219.55 248.21 236.54 248.21 236.54L232.493 138.135C232.493 138.135 187.146 121.145 155.266 138.135L170.983 236.54Z" fill="#DE9244"/>
<path d="M170.981 236.561H156.905L141.188 138.138H155.263L170.981 236.561Z" fill="#4C4C4C"/>
<path d="M234.084 71.9317H217.07C216.403 71.9157 215.762 71.6716 215.254 71.2401C214.746 70.8085 214.401 70.2157 214.277 69.5605C214.218 69.2655 214.227 68.9609 214.303 68.6698C214.379 68.3787 214.521 68.1088 214.716 67.8804C214.912 67.652 215.157 67.4711 215.434 67.3514C215.71 67.2317 216.009 67.1763 216.31 67.1894H233.354C234.021 67.2054 234.662 67.4495 235.17 67.881C235.679 68.3125 236.024 68.9053 236.148 69.5605C236.207 69.8582 236.198 70.1656 236.12 70.4591C236.042 70.7525 235.898 71.0242 235.699 71.2532C235.499 71.4822 235.25 71.6625 234.97 71.7801C234.691 71.8977 234.387 71.9496 234.084 71.9317Z" fill="#4C4C4C"/>
<path d="M235.895 82.8916H218.82C218.154 82.8757 217.513 82.6315 217.004 82.2C216.496 81.7685 216.151 81.1757 216.027 80.5205C215.968 80.2254 215.977 79.9208 216.053 79.6297C216.129 79.3387 216.271 79.0687 216.467 78.8403C216.662 78.6119 216.908 78.431 217.184 78.3113C217.46 78.1916 217.759 78.1362 218.06 78.1493H235.11C235.777 78.1653 236.418 78.4094 236.926 78.841C237.435 79.2725 237.78 79.8653 237.904 80.5205C237.962 80.8135 237.954 81.1159 237.879 81.4051C237.804 81.6943 237.665 81.9629 237.471 82.1908C237.278 82.4188 237.036 82.6002 236.763 82.7215C236.49 82.8428 236.193 82.901 235.895 82.8916Z" fill="#4C4C4C"/>
<path d="M2.76332 408.894C4.8627 407.98 6.53785 406.305 7.45128 404.206L8.65797 401.442L9.86465 404.206C10.7781 406.305 12.4533 407.98 14.5526 408.894L17.3159 410.1L14.5526 411.307C12.4533 412.22 10.7781 413.896 9.86465 415.995L8.65797 418.758L7.45128 415.995C6.53785 413.896 4.8627 412.22 2.76332 411.307L0 410.1L2.76332 408.894Z" fill="#DE9244"/>
<path d="M322.985 21.5359C329.047 18.8934 333.884 14.0519 336.524 7.98497L340.004 0L343.484 7.98497C346.124 14.0519 350.961 18.8934 357.023 21.5359L365 25.0196L357.023 28.5032C350.965 31.1347 346.126 35.9614 343.476 42.015L339.996 50L336.516 42.015C333.876 35.9481 329.039 31.1066 322.978 28.4641L315 24.9804L322.985 21.5359Z" fill="#DE9244"/>
<path d="M581.749 48.5059C586.114 46.6033 589.596 43.1174 591.497 38.7492L594.003 33L596.509 38.7492C598.409 43.1174 601.892 46.6033 606.256 48.5059L612 51.0141L606.256 53.5223C601.895 55.417 598.411 58.8922 596.503 63.2508L593.997 69L591.491 63.2508C589.591 58.8826 586.108 55.3967 581.744 53.4941L576 50.9859L581.749 48.5059Z" fill="#DE9244"/>
<path d="M325.472 350.06C328.866 348.58 331.575 345.869 333.053 342.472L335.002 338L336.951 342.472C338.43 345.869 341.138 348.58 344.533 350.06L349 352.011L344.533 353.962C341.141 355.435 338.431 358.138 336.947 361.528L334.998 366L333.049 361.528C331.57 358.131 328.862 355.42 325.467 353.94L321 351.989L325.472 350.06Z" fill="#DE9244"/>
</svg>
