<svg width="829" height="838" viewBox="0 0 829 838" fill="none" xmlns="http://www.w3.org/2000/svg">
<g filter="url(#filter0_d_908_1260)">
<rect x="6" y="107" width="817" height="627" rx="20" fill="white"/>
</g>
<path d="M454.576 567.389L427.288 801.944C427.173 802.968 427.276 804.005 427.588 804.987C427.901 805.969 428.416 806.874 429.102 807.644C429.787 808.414 430.627 809.03 431.566 809.454C432.505 809.878 433.523 810.1 434.554 810.105C436.222 810.097 437.838 809.521 439.136 808.472C440.433 807.424 441.335 805.964 441.693 804.335L493.117 567.383H454.576V567.389Z" fill="white"/>
<path d="M434.558 812.11C433.244 812.105 431.946 811.824 430.749 811.284C429.552 810.744 428.482 809.958 427.608 808.977C426.735 807.996 426.078 806.842 425.681 805.59C425.283 804.339 425.154 803.017 425.301 801.712L452.589 567.158C452.647 566.668 452.883 566.216 453.253 565.89C453.623 565.563 454.1 565.384 454.593 565.388H493.121C493.42 565.388 493.716 565.455 493.986 565.584C494.256 565.714 494.493 565.902 494.681 566.135C494.869 566.368 495.002 566.64 495.071 566.932C495.139 567.223 495.142 567.526 495.078 567.819L443.654 804.764C443.198 806.84 442.049 808.699 440.396 810.034C438.742 811.37 436.683 812.102 434.558 812.11ZM456.389 569.395L429.308 802.173C429.242 803.483 429.659 804.771 430.482 805.793C431.304 806.815 432.473 807.498 433.767 807.714C435.061 807.929 436.388 807.661 437.497 806.961C438.606 806.26 439.419 805.177 439.78 803.916L490.67 569.395H456.389Z" fill="#262424"/>
<path d="M555.403 567.389L582.692 801.943C582.806 802.967 582.703 804.004 582.391 804.986C582.078 805.968 581.563 806.873 580.877 807.643C580.192 808.413 579.352 809.03 578.413 809.454C577.474 809.878 576.456 810.099 575.425 810.104C573.756 810.099 572.137 809.526 570.837 808.478C569.537 807.431 568.633 805.971 568.273 804.341L516.849 567.389H555.397H555.403Z" fill="white"/>
<path d="M575.415 812.11C573.287 812.105 571.225 811.374 569.569 810.038C567.912 808.703 566.761 806.842 566.305 804.764L514.881 567.819C514.817 567.526 514.82 567.223 514.888 566.932C514.957 566.64 515.09 566.368 515.278 566.135C515.465 565.902 515.703 565.714 515.973 565.584C516.243 565.455 516.539 565.388 516.838 565.388H555.386C555.879 565.384 556.356 565.563 556.726 565.89C557.096 566.216 557.332 566.668 557.39 567.158L584.678 801.712C584.825 803.018 584.696 804.34 584.298 805.592C583.9 806.844 583.242 807.998 582.368 808.98C581.494 809.961 580.423 810.747 579.225 811.286C578.027 811.826 576.729 812.106 575.415 812.11ZM519.316 569.395L570.206 803.916C570.567 805.177 571.379 806.26 572.488 806.961C573.597 807.661 574.925 807.929 576.219 807.714C577.512 807.498 578.682 806.815 579.504 805.793C580.326 804.771 580.744 803.483 580.677 802.173L553.596 569.395H519.336H519.316Z" fill="#262424"/>
<path d="M699.327 545.129H676.133L695.721 418.345H718.915L699.327 545.129Z" fill="white"/>
<path d="M699.33 547.133H676.109C675.818 547.137 675.53 547.077 675.264 546.957C674.999 546.838 674.763 546.662 674.572 546.442C674.381 546.222 674.241 545.964 674.16 545.684C674.08 545.404 674.061 545.11 674.106 544.822L693.694 418.045C693.768 417.569 694.011 417.135 694.379 416.823C694.747 416.511 695.215 416.343 695.697 416.349H718.892C719.183 416.345 719.471 416.405 719.736 416.525C720.002 416.644 720.238 416.82 720.429 417.04C720.62 417.26 720.76 417.518 720.841 417.798C720.921 418.078 720.94 418.372 720.895 418.66L701.314 545.41C701.246 545.888 701.008 546.326 700.644 546.642C700.28 546.959 699.813 547.133 699.33 547.133ZM678.473 543.126H697.614L716.587 420.356H697.447L678.473 543.126Z" fill="#262424"/>
<path d="M709.099 435.009C705.95 435.009 702.839 434.327 699.979 433.011C697.119 431.694 694.578 429.774 692.53 427.383C690.483 424.991 688.977 422.185 688.117 419.156C687.257 416.127 687.062 412.948 687.547 409.838L705.492 293.532C706.288 288.387 708.898 283.695 712.85 280.306C716.803 276.917 721.837 275.054 727.044 275.053C730.189 275.054 733.297 275.734 736.154 277.049C739.011 278.363 741.551 280.28 743.598 282.668C745.645 285.056 747.151 287.858 748.014 290.882C748.876 293.907 749.075 297.082 748.595 300.19L730.657 416.516C729.864 421.665 727.254 426.36 723.3 429.752C719.346 433.144 714.308 435.009 709.099 435.009Z" fill="#88C0C2"/>
<path d="M599.642 567.389L572.354 801.943C572.24 802.967 572.342 804.004 572.655 804.986C572.967 805.968 573.483 806.873 574.168 807.643C574.853 808.413 575.693 809.03 576.632 809.454C577.572 809.878 578.59 810.099 579.62 810.104C581.29 810.099 582.908 809.526 584.208 808.478C585.508 807.431 586.413 805.971 586.773 804.341L638.197 567.389H599.642Z" fill="white"/>
<path d="M579.625 812.11C578.312 812.105 577.014 811.824 575.817 811.284C574.619 810.744 573.549 809.958 572.676 808.977C571.802 807.996 571.146 806.842 570.748 805.59C570.351 804.339 570.221 803.017 570.369 801.712L597.657 567.158C597.714 566.668 597.951 566.216 598.32 565.89C598.69 565.563 599.167 565.384 599.66 565.388H638.208C638.508 565.388 638.803 565.455 639.073 565.584C639.343 565.714 639.581 565.902 639.769 566.135C639.956 566.368 640.089 566.64 640.158 566.932C640.227 567.223 640.229 567.526 640.165 567.819L588.741 804.764C588.285 806.843 587.133 808.705 585.475 810.041C583.817 811.376 581.754 812.106 579.625 812.11ZM601.423 569.395L574.342 802.173C574.276 803.483 574.693 804.771 575.516 805.793C576.338 806.815 577.507 807.498 578.801 807.714C580.095 807.929 581.422 807.661 582.531 806.961C583.64 806.26 584.453 805.177 584.814 803.916L635.704 569.395H601.423Z" fill="#262424"/>
<path d="M700.467 567.389L727.755 801.943C727.869 802.967 727.767 804.004 727.454 804.986C727.142 805.968 726.626 806.873 725.941 807.643C725.256 808.413 724.416 809.03 723.477 809.454C722.537 809.878 721.519 810.099 720.489 810.104C718.819 810.099 717.201 809.526 715.901 808.478C714.601 807.431 713.696 805.971 713.336 804.341L661.912 567.389H700.46H700.467Z" fill="white"/>
<path d="M720.48 812.107C718.352 812.102 716.29 811.371 714.634 810.035C712.978 808.7 711.827 806.839 711.371 804.761L659.947 567.809C659.883 567.516 659.885 567.213 659.954 566.922C660.022 566.631 660.155 566.358 660.343 566.125C660.531 565.892 660.768 565.704 661.038 565.575C661.308 565.445 661.604 565.378 661.903 565.378H700.451C700.945 565.375 701.422 565.553 701.791 565.88C702.161 566.206 702.397 566.658 702.455 567.148L729.743 801.702C729.892 803.008 729.763 804.331 729.365 805.584C728.968 806.837 728.311 807.992 727.437 808.974C726.562 809.956 725.491 810.743 724.292 811.283C723.094 811.822 721.795 812.103 720.48 812.107ZM664.381 569.392L715.271 803.913C715.632 805.173 716.445 806.257 717.554 806.958C718.663 807.658 719.99 807.926 721.284 807.711C722.578 807.495 723.747 806.812 724.569 805.79C725.392 804.768 725.809 803.479 725.743 802.17L698.682 569.392H664.401H664.381Z" fill="#262424"/>
<path d="M605.363 532.16H455.792C444.83 532.16 435.943 541.047 435.943 552.009C435.943 562.971 444.83 571.857 455.792 571.857H605.363C616.325 571.857 625.211 562.971 625.211 552.009C625.211 541.047 616.325 532.16 605.363 532.16Z" fill="#DE9244"/>
<path d="M699.283 532.16H600.829C589.867 532.16 580.98 541.047 580.98 552.009C580.98 562.971 589.867 571.857 600.829 571.857H699.283C710.245 571.857 719.131 562.971 719.131 552.009C719.131 541.047 710.245 532.16 699.283 532.16Z" fill="white"/>
<path d="M699.282 573.862H600.828C595.033 573.862 589.475 571.56 585.377 567.462C581.279 563.364 578.977 557.806 578.977 552.01C578.977 546.215 581.279 540.657 585.377 536.559C589.475 532.46 595.033 530.158 600.828 530.158H699.282C705.078 530.158 710.636 532.46 714.734 536.559C718.832 540.657 721.134 546.215 721.134 552.01C721.134 557.806 718.832 563.364 714.734 567.462C710.636 571.56 705.078 573.862 699.282 573.862ZM600.828 534.165C596.096 534.165 591.557 536.045 588.21 539.392C584.864 542.738 582.984 547.277 582.984 552.01C582.984 556.743 584.864 561.282 588.21 564.628C591.557 567.975 596.096 569.855 600.828 569.855H699.282C704.015 569.855 708.554 567.975 711.901 564.628C715.247 561.282 717.127 556.743 717.127 552.01C717.127 547.277 715.247 542.738 711.901 539.392C708.554 536.045 704.015 534.165 699.282 534.165H600.828Z" fill="#262424"/>
<path d="M201.376 709.966C201.376 709.966 148.282 549.683 253.468 446.514C253.468 446.514 312.566 580.744 201.376 709.966Z" fill="#88C0C2"/>
<path d="M249.46 472.561C249.46 472.561 215.714 589.888 204.087 703.469C204.087 703.469 238.441 582.749 249.46 472.561Z" fill="white"/>
<path d="M198.378 712.373C198.378 712.373 224.925 562.775 149.024 464.775C149.018 464.782 117.014 589.89 198.378 712.373Z" fill="#DE9244"/>
<path d="M153.14 489.246C153.14 489.246 182.164 599.641 196.209 706.249C196.209 706.249 166.597 592.669 153.14 489.246Z" fill="white"/>
<path d="M201.864 705.694C139.086 686.547 106.142 580.139 106.142 580.139L127.807 585.415L137.277 587.712L141.177 586.831L160.878 582.369C184.5 625.111 201.864 705.694 201.864 705.694Z" fill="#88C0C2"/>
<path d="M193.396 699.014C192.729 698.019 151.028 636.163 127.834 585.42L137.304 587.717L141.204 586.836C150.674 605.202 180.053 663.05 193.396 699.014Z" fill="white"/>
<path d="M160.906 582.367C160.906 582.367 117.382 621.369 100.913 699.774C100.693 700.824 100.172 701.786 99.4141 702.544C98.6559 703.302 97.6934 703.822 96.6442 704.042C95.595 704.261 94.5045 704.171 93.5061 703.78C92.5076 703.39 91.6445 702.718 91.0222 701.845C85.5392 694.104 78.9409 679.365 77.1978 652.27C74.0856 603.738 92.3379 576.577 103.023 572.129C103.023 572.129 108.907 576.303 120.521 579.475C123.909 580.394 127.344 581.125 130.813 581.666C140.774 583.165 150.885 583.401 160.906 582.367Z" fill="#88C0C2"/>
<path d="M130.811 581.669C119.992 596.662 96.971 633.033 93.6718 675.201C93.6718 675.201 86.4791 624.231 120.519 579.479C123.907 580.397 127.343 581.128 130.811 581.669Z" fill="white"/>
<path d="M290.046 609.659C261.829 695.01 207.153 706.671 207.153 706.671L197.262 704.908C221.972 663.621 234.661 606.854 234.661 606.854L256.92 607.99L266.037 608.457L290.046 609.659Z" fill="#DE9244"/>
<path d="M266.051 608.442C252.307 668.007 207.888 700.839 207.167 701.373C237.888 669.276 252.06 626.08 256.935 607.981L266.051 608.442Z" fill="white"/>
<path d="M289.346 723.952C289.346 723.952 283.349 659.751 234.663 606.851C234.663 606.851 248.301 603.178 268.91 603.799C272.483 603.906 276.257 604.147 280.224 604.554C288.79 605.435 297.267 607.03 305.568 609.322C305.568 609.322 324.969 676.681 289.346 723.952Z" fill="#DE9244"/>
<path d="M294.636 688.329C291.844 652.319 275.582 616.976 268.91 603.786C272.483 603.893 276.256 604.133 280.223 604.541C300.78 645.927 294.636 688.329 294.636 688.329Z" fill="white"/>
<path d="M262.417 698.574C262.417 698.574 260.026 738.178 247.678 773.199C245.265 780.18 242.334 786.971 238.909 793.515C235.826 799.462 232.061 805.029 227.689 810.105H175.597C161.132 793.716 152.55 767.269 147.548 744.242C144.271 729.191 142.039 713.932 140.869 698.574H262.417Z" fill="#DE9244"/>
<path d="M247.678 773.199C245.265 780.18 242.334 786.971 238.909 793.515C234.288 783.604 222.881 771.209 194.965 767.028C172.144 763.616 156.757 755.294 147.548 744.242C144.271 729.191 142.039 713.932 140.869 698.574H169.4C171.991 711.851 180.392 734.792 207.654 741.316C232.658 747.307 243.597 760.423 247.678 773.199Z" fill="white"/>
<path d="M212.995 707.757C194.883 707.183 189.287 722.283 222.011 731.967C254.736 741.65 239.375 708.592 212.995 707.757Z" fill="white"/>
<path d="M371.945 686.714L359.256 735.801L378.623 739.808L395.987 691.389L371.945 686.714Z" fill="white"/>
<path d="M378.623 741.809C378.486 741.81 378.35 741.796 378.216 741.769L358.848 737.762C358.582 737.707 358.33 737.599 358.107 737.444C357.884 737.289 357.695 737.09 357.551 736.859C357.408 736.629 357.312 736.371 357.271 736.103C357.23 735.835 357.244 735.56 357.312 735.298L370.001 686.211C370.129 685.717 370.441 685.291 370.873 685.019C371.305 684.747 371.824 684.65 372.325 684.748L396.368 689.423C396.654 689.478 396.926 689.594 397.163 689.764C397.4 689.935 397.597 690.155 397.74 690.409C397.883 690.664 397.969 690.946 397.992 691.238C398.014 691.529 397.973 691.821 397.87 692.095L380.506 740.513C380.362 740.896 380.104 741.225 379.767 741.456C379.431 741.688 379.031 741.811 378.623 741.809ZM361.72 734.262L377.321 737.488L393.309 692.903L373.407 689.036L361.72 734.262Z" fill="#262424"/>
<path d="M280.148 801.303V810.105H388.934C388.934 810.105 389.288 805.51 389.602 797.783C390.27 782.583 391.058 757.044 389.041 728.788L354.313 723.225C354.313 723.225 324.507 754.239 297.987 778.375C295.235 780.88 292.33 783.317 289.305 785.635C283.468 790.076 280.148 795.579 280.148 801.303Z" fill="#88C0C2"/>
<path d="M331.539 779.412C331.147 779.412 330.762 779.296 330.435 779.079C330.107 778.862 329.851 778.554 329.697 778.192C329.543 777.831 329.499 777.432 329.57 777.046C329.641 776.659 329.825 776.302 330.097 776.019C353.331 751.93 363.716 732.068 363.816 731.875C363.933 731.633 364.096 731.418 364.297 731.24C364.498 731.063 364.732 730.928 364.986 730.843C365.24 730.758 365.508 730.725 365.775 730.745C366.043 730.766 366.303 730.839 366.541 730.962C366.779 731.085 366.99 731.254 367.161 731.46C367.333 731.666 367.461 731.904 367.539 732.16C367.617 732.417 367.643 732.686 367.615 732.952C367.587 733.219 367.506 733.477 367.376 733.711C366.949 734.539 356.617 754.288 332.975 778.798C332.789 778.991 332.566 779.145 332.32 779.25C332.073 779.356 331.808 779.411 331.539 779.412Z" fill="#262424"/>
<path d="M371.731 780.552C377.065 780.552 381.388 775.739 381.388 769.8C381.388 763.862 377.065 759.048 371.731 759.048C366.398 759.048 362.074 763.862 362.074 769.8C362.074 775.739 366.398 780.552 371.731 780.552Z" fill="white"/>
<path d="M371.733 782.557C365.301 782.557 360.072 776.833 360.072 769.801C360.072 762.768 365.301 757.045 371.733 757.045C378.164 757.045 383.393 762.768 383.393 769.801C383.393 776.833 378.164 782.557 371.733 782.557ZM371.733 761.045C367.512 761.045 364.079 764.972 364.079 769.794C364.079 774.616 367.512 778.543 371.733 778.543C375.954 778.543 379.386 774.616 379.386 769.794C379.386 764.972 375.954 761.052 371.733 761.052V761.045Z" fill="#262424"/>
<path d="M280.148 801.303V810.105H388.934C388.934 810.105 389.288 805.51 389.602 797.783H332.167C332.167 797.783 328.494 772.198 297.993 778.369C295.242 780.873 292.337 783.311 289.311 785.628C283.468 790.076 280.148 795.579 280.148 801.303Z" fill="white"/>
<path d="M388.935 812.108H280.149C279.618 812.108 279.108 811.897 278.732 811.521C278.357 811.145 278.146 810.636 278.146 810.104V801.302C278.146 795.045 281.685 788.914 288.116 784.038C290.982 781.868 293.867 779.464 296.685 776.892C296.952 776.65 297.28 776.484 297.633 776.412C308.172 774.275 316.854 775.55 323.432 780.185C330.438 785.127 332.996 792.467 333.831 795.779H389.642C389.913 795.779 390.181 795.833 390.43 795.94C390.679 796.046 390.904 796.201 391.091 796.396C391.278 796.592 391.424 796.823 391.519 797.076C391.615 797.329 391.658 797.599 391.646 797.87C391.312 805.543 390.978 810.211 390.978 810.258C390.939 810.769 390.705 811.246 390.325 811.59C389.945 811.934 389.447 812.12 388.935 812.108ZM282.133 808.101H387.085C387.198 806.385 387.372 803.533 387.545 799.786H332.208C331.723 799.791 331.252 799.62 330.884 799.304C330.515 798.989 330.274 798.55 330.204 798.07C330.204 797.983 328.755 788.827 321.068 783.431C315.538 779.551 308.098 778.475 298.949 780.232C296.177 782.736 293.339 785.087 290.521 787.231C285.111 791.331 282.133 796.333 282.133 801.302V808.101Z" fill="#262424"/>
<path d="M673.81 442.729C673.81 442.729 664.013 502.836 661.789 510.402C659.565 517.969 636.411 530.885 619.935 531.773C603.459 532.662 467.225 531.773 467.225 531.773L408.007 702.295L355.915 690.721C355.915 690.721 385.06 561.526 399.105 505.02C402.764 490.327 405.396 480.523 406.224 479.234C407.199 477.718 418.786 474.559 435.736 470.552C488.256 458.297 592.333 438.702 592.333 438.702C592.333 438.702 609.249 406.198 640.418 406.198C671.586 406.198 677.37 421.358 673.81 442.729Z" fill="#88C0C2"/>
<path d="M638.191 486.693C638.063 486.692 637.935 486.676 637.81 486.646C632.294 485.357 628.46 482.499 626.343 478.151C621.375 467.826 628.347 452.88 628.667 452.245C628.858 451.845 629.199 451.537 629.617 451.388C630.035 451.24 630.494 451.264 630.895 451.454C631.295 451.644 631.603 451.986 631.752 452.404C631.9 452.821 631.876 453.281 631.686 453.681C631.619 453.822 625.074 467.833 629.355 476.709C631.012 480.141 634.03 482.332 638.572 483.387C638.982 483.469 639.347 483.703 639.593 484.042C639.84 484.38 639.95 484.799 639.902 485.215C639.854 485.631 639.652 486.014 639.335 486.288C639.018 486.562 638.609 486.706 638.191 486.693Z" fill="#262424"/>
<path d="M394.65 679.923C394.389 679.923 394.131 679.862 393.897 679.744C393.663 679.626 393.461 679.455 393.305 679.245C393.15 679.034 393.046 678.79 393.003 678.532C392.959 678.274 392.977 678.009 393.054 677.759L444.699 509.909C444.797 509.589 444.99 509.305 445.252 509.095C445.514 508.885 445.833 508.76 446.168 508.734L634.975 494.582L642.321 450.017C642.349 449.794 642.421 449.579 642.534 449.384C642.647 449.19 642.798 449.02 642.978 448.885C643.158 448.751 643.363 448.654 643.582 448.6C643.8 448.547 644.027 448.538 644.249 448.575C644.471 448.611 644.683 448.692 644.873 448.813C645.063 448.933 645.226 449.091 645.354 449.276C645.481 449.461 645.57 449.67 645.615 449.89C645.659 450.111 645.659 450.338 645.614 450.558L638.04 496.426C637.98 496.795 637.797 497.134 637.521 497.387C637.245 497.64 636.891 497.793 636.518 497.821L447.517 511.986L396.207 678.748C396.103 679.082 395.897 679.375 395.618 679.586C395.339 679.797 395 679.915 394.65 679.923Z" fill="#262424"/>
<path d="M405.672 688.717C405.551 688.717 405.43 688.704 405.311 688.677L366.242 679.995C365.821 679.89 365.457 679.624 365.228 679.254C364.999 678.884 364.924 678.439 365.018 678.015C365.112 677.59 365.368 677.219 365.731 676.98C366.094 676.742 366.537 676.654 366.964 676.736L406.033 685.418C406.434 685.508 406.788 685.742 407.027 686.076C407.266 686.41 407.373 686.821 407.329 687.229C407.284 687.638 407.09 688.015 406.785 688.29C406.479 688.564 406.083 688.717 405.672 688.717Z" fill="#262424"/>
<path d="M473.472 561.422L489.894 609.386L508.266 602.073L496.118 552.092L473.472 561.422Z" fill="white"/>
<path d="M489.895 611.385C489.48 611.386 489.074 611.259 488.734 611.019C488.394 610.78 488.137 610.441 487.999 610.049L471.576 562.084C471.41 561.601 471.435 561.072 471.647 560.607C471.858 560.141 472.239 559.774 472.712 559.58L495.358 550.23C495.625 550.12 495.913 550.068 496.201 550.08C496.49 550.091 496.773 550.164 497.03 550.295C497.288 550.426 497.514 550.61 497.693 550.837C497.873 551.063 498.001 551.325 498.07 551.606L510.218 601.587C510.332 602.057 510.273 602.553 510.051 602.982C509.829 603.412 509.459 603.747 509.009 603.925L490.637 611.271C490.399 611.355 490.147 611.394 489.895 611.385ZM475.984 562.552L491.118 606.743L505.91 600.839L494.724 554.831L475.984 562.552Z" fill="#262424"/>
<path d="M459.891 707.609L464.733 714.956L555.561 655.077C555.561 655.077 553.323 651.07 549.356 644.391C541.556 631.328 528.145 609.563 510.915 587.09L478.858 601.555C478.858 601.555 471.045 643.85 462.162 678.598C461.241 682.205 460.159 685.838 458.89 689.451C456.485 696.41 456.739 702.834 459.891 707.609Z" fill="#88C0C2"/>
<path d="M489.652 661.389C489.528 661.389 489.406 661.378 489.284 661.356C489.026 661.308 488.779 661.209 488.558 661.066C488.338 660.922 488.147 660.736 487.999 660.519C487.85 660.302 487.745 660.058 487.691 659.8C487.636 659.543 487.633 659.277 487.681 659.018C493.826 626.114 491.568 603.821 491.542 603.587C491.486 603.056 491.643 602.524 491.98 602.109C492.316 601.694 492.803 601.429 493.335 601.373C493.866 601.318 494.398 601.475 494.813 601.811C495.228 602.148 495.493 602.635 495.549 603.166C495.649 604.095 497.893 626.267 491.642 659.746C491.557 660.211 491.311 660.63 490.947 660.931C490.582 661.232 490.124 661.394 489.652 661.389Z" fill="#262424"/>
<path d="M521.448 636.713C525.875 633.78 526.816 627.406 523.55 622.477C520.284 617.549 514.048 615.931 509.621 618.864C505.194 621.798 504.253 628.171 507.519 633.1C510.785 638.029 517.022 639.647 521.448 636.713Z" fill="white"/>
<path d="M520.025 643.357C519.002 643.356 517.983 643.223 516.993 642.963C513.816 642.101 511.069 640.096 509.28 637.333C507.444 634.599 506.683 631.284 507.142 628.023C507.346 626.456 507.885 624.952 508.723 623.613C509.561 622.273 510.678 621.13 511.998 620.262C513.318 619.393 514.809 618.82 516.371 618.58C517.933 618.341 519.528 618.441 521.047 618.874C524.212 619.759 526.95 621.757 528.759 624.501C530.568 627.245 531.325 630.549 530.891 633.807C530.682 635.373 530.141 636.876 529.305 638.216C528.469 639.557 527.357 640.704 526.043 641.58C524.255 642.752 522.162 643.37 520.025 643.357ZM518.022 622.48C516.665 622.472 515.336 622.865 514.202 623.609C513.36 624.177 512.648 624.918 512.115 625.783C511.582 626.648 511.239 627.616 511.109 628.624C510.797 630.905 511.337 633.221 512.625 635.129C513.872 637.065 515.788 638.472 518.008 639.083C518.984 639.372 520.01 639.444 521.017 639.295C522.023 639.146 522.984 638.778 523.834 638.219C524.683 637.659 525.4 636.92 525.934 636.054C526.467 635.188 526.805 634.216 526.924 633.206C527.212 630.925 526.676 628.616 525.41 626.697C524.145 624.778 522.235 623.374 520.025 622.74C519.371 622.568 518.698 622.481 518.022 622.48Z" fill="#262424"/>
<path d="M459.895 707.611L464.737 714.957L555.564 655.078C555.564 655.078 553.327 651.071 549.36 644.393L501.402 676.002C501.402 676.002 484.251 656.634 462.186 678.6C461.264 682.206 460.182 685.839 458.913 689.452C456.489 696.411 456.743 702.836 459.895 707.611Z" fill="white"/>
<path d="M464.735 716.967C464.404 716.966 464.078 716.884 463.786 716.726C463.495 716.569 463.247 716.342 463.065 716.065L458.223 708.719C454.777 703.496 454.363 696.424 457.048 688.817C458.243 685.431 459.325 681.838 460.267 678.132C460.356 677.78 460.538 677.459 460.794 677.203C468.408 669.63 476.375 665.897 484.436 666.157C493.005 666.424 499.182 671.146 501.7 673.457L548.302 642.736C548.53 642.587 548.785 642.487 549.052 642.44C549.32 642.393 549.594 642.401 549.858 642.464C550.122 642.526 550.371 642.642 550.589 642.803C550.807 642.965 550.99 643.169 551.127 643.404C555.068 649.995 557.338 654.089 557.365 654.129C557.616 654.575 557.687 655.101 557.563 655.598C557.439 656.095 557.129 656.525 556.697 656.801L465.87 716.68C465.529 716.886 465.133 716.986 464.735 716.967ZM464.007 679.648C463.065 683.274 462.003 686.793 460.821 690.126C458.564 696.524 458.818 702.341 461.562 706.488L465.302 712.165L552.917 654.416C552.069 652.92 550.64 650.443 548.73 647.224L502.522 677.684C502.119 677.951 501.634 678.063 501.156 678C500.677 677.938 500.237 677.704 499.917 677.344C499.857 677.277 493.619 670.425 484.229 670.151C477.511 669.977 470.679 673.163 464.007 679.648Z" fill="#262424"/>
<path d="M491.234 458.713L509.853 554.989L464.019 570.577C464.019 570.577 420.202 491.21 408.508 455.2C406.598 449.343 405.543 444.628 405.669 441.596C406.558 419.917 427.929 400.937 440.838 401.385C442.377 401.508 443.904 401.746 445.406 402.099C471.252 407.495 575.449 441.903 575.449 441.903L491.234 458.713Z" fill="#88C0C2"/>
<path d="M464.02 572.246C463.721 572.246 463.428 572.167 463.171 572.015C462.914 571.864 462.702 571.646 462.557 571.385C462.297 570.917 436.591 524.281 419.474 486.668C419.378 486.468 419.322 486.25 419.311 486.028C419.299 485.806 419.333 485.584 419.408 485.375C419.484 485.166 419.601 484.974 419.751 484.81C419.902 484.647 420.084 484.515 420.287 484.423C420.489 484.331 420.708 484.28 420.93 484.274C421.153 484.268 421.374 484.306 421.581 484.386C421.789 484.466 421.978 484.587 422.138 484.742C422.298 484.896 422.426 485.081 422.513 485.286C438.027 519.346 460.634 560.933 464.808 568.546L507.937 553.854L489.592 459.019C489.55 458.803 489.552 458.581 489.596 458.365C489.641 458.149 489.728 457.945 489.852 457.763C489.976 457.581 490.135 457.426 490.32 457.305C490.504 457.185 490.711 457.103 490.927 457.063L573.42 440.6C573.635 440.556 573.856 440.555 574.071 440.597C574.287 440.639 574.492 440.722 574.674 440.843C574.857 440.964 575.015 441.12 575.137 441.302C575.26 441.483 575.346 441.688 575.39 441.902C575.434 442.117 575.435 442.339 575.393 442.554C575.351 442.769 575.268 442.974 575.147 443.157C575.026 443.34 574.87 443.497 574.688 443.62C574.507 443.743 574.302 443.829 574.088 443.873L493.185 460.021L511.49 554.668C511.567 555.064 511.497 555.474 511.294 555.823C511.092 556.172 510.77 556.435 510.388 556.565L464.554 572.126C464.384 572.195 464.203 572.236 464.02 572.246Z" fill="#262424"/>
<path d="M464.215 558.66C463.819 558.659 463.436 558.518 463.135 558.261C462.834 558.004 462.634 557.649 462.57 557.258C462.507 556.867 462.584 556.467 462.789 556.128C462.994 555.789 463.312 555.534 463.687 555.408L500.866 542.939C501.284 542.805 501.738 542.841 502.13 543.039C502.522 543.237 502.82 543.582 502.959 543.998C503.099 544.414 503.069 544.869 502.876 545.263C502.683 545.657 502.342 545.96 501.928 546.105L464.749 558.574C464.577 558.631 464.396 558.661 464.215 558.66Z" fill="#262424"/>
<path d="M487.59 544.636C487.192 544.636 486.807 544.494 486.505 544.236C486.203 543.978 486.002 543.62 485.94 543.227L469.471 439.49C469.426 439.206 469.454 438.914 469.555 438.644C469.656 438.374 469.824 438.134 470.045 437.949C470.265 437.763 470.53 437.638 470.814 437.585C471.097 437.532 471.389 437.553 471.662 437.647L514.865 452.527C515.284 452.671 515.628 452.976 515.822 453.374C516.016 453.772 516.044 454.231 515.9 454.65C515.756 455.069 515.451 455.414 515.052 455.608C514.654 455.802 514.195 455.83 513.776 455.686L473.204 441.714L489.233 542.706C489.267 542.923 489.258 543.144 489.207 543.357C489.156 543.57 489.063 543.771 488.934 543.949C488.805 544.126 488.642 544.276 488.455 544.391C488.268 544.505 488.06 544.582 487.844 544.616C487.76 544.629 487.675 544.636 487.59 544.636Z" fill="#262424"/>
<path d="M491.236 460.382C490.802 460.384 490.385 460.216 490.074 459.915L463.781 434.45C463.621 434.298 463.493 434.115 463.405 433.914C463.316 433.712 463.268 433.495 463.264 433.274C463.26 433.054 463.299 432.835 463.38 432.63C463.461 432.425 463.581 432.238 463.734 432.08C463.888 431.922 464.071 431.795 464.273 431.708C464.476 431.621 464.693 431.575 464.914 431.572C465.134 431.57 465.353 431.611 465.557 431.693C465.762 431.776 465.948 431.898 466.105 432.052L492.398 457.517C492.635 457.749 492.798 458.046 492.866 458.37C492.934 458.695 492.904 459.033 492.779 459.34C492.655 459.647 492.441 459.911 492.166 460.096C491.891 460.282 491.567 460.381 491.236 460.382Z" fill="#262424"/>
<path d="M361.085 151.301C360.758 152.014 360.689 152.82 360.89 153.579C361.091 154.338 361.55 155.003 362.187 155.461L391.673 176.605C392.244 177.014 392.642 177.622 392.787 178.31C392.931 178.998 392.813 179.714 392.454 180.319C392.254 180.658 391.985 180.952 391.665 181.181C391.344 181.41 390.978 181.569 390.592 181.647C390.206 181.725 389.807 181.721 389.423 181.635C389.038 181.548 388.676 181.382 388.36 181.147L378.917 174.088C378.132 173.505 377.176 173.198 376.198 173.216C375.221 173.234 374.277 173.576 373.514 174.188C372.7 174.838 372.142 175.755 371.938 176.776C371.734 177.797 371.897 178.858 372.399 179.771L380.493 194.53C383.016 199.13 387.142 202.641 392.087 204.395L398.218 206.572L405.11 216.83L426.033 212.375L418.687 197.235L413.518 172.278C413.125 170.384 412.25 168.623 410.977 167.166C409.704 165.709 408.076 164.606 406.252 163.963L365.279 149.511C364.483 149.233 363.612 149.263 362.836 149.594C362.06 149.925 361.436 150.534 361.085 151.301Z" fill="white"/>
<path d="M405.111 218.832C404.783 218.833 404.459 218.753 404.17 218.599C403.88 218.445 403.632 218.223 403.448 217.951L396.95 208.26L391.447 206.304C386.036 204.388 381.52 200.549 378.758 195.518L370.637 180.765C369.928 179.48 369.681 177.991 369.937 176.546C370.192 175.101 370.934 173.787 372.04 172.822C373.146 171.857 374.549 171.3 376.015 171.244C377.481 171.187 378.923 171.634 380.1 172.511L389.55 179.53C389.644 179.601 389.753 179.65 389.868 179.674C389.984 179.699 390.103 179.697 390.218 179.67C390.372 179.64 390.514 179.565 390.626 179.455C390.739 179.345 390.816 179.204 390.849 179.05C390.881 178.896 390.868 178.736 390.811 178.59C390.753 178.444 390.654 178.318 390.525 178.227L361.02 157.083C360.005 156.353 359.275 155.294 358.955 154.085C358.634 152.877 358.743 151.595 359.263 150.458C359.815 149.231 360.809 148.257 362.047 147.731C363.285 147.205 364.676 147.165 365.942 147.62L406.927 162.065C409.074 162.829 410.989 164.13 412.488 165.846C413.987 167.561 415.02 169.633 415.489 171.863L420.612 196.573L427.838 211.486C427.97 211.76 428.038 212.06 428.037 212.364C428.036 212.668 427.966 212.967 427.832 213.24C427.699 213.513 427.505 213.752 427.265 213.938C427.025 214.125 426.746 214.255 426.449 214.318L405.525 218.772C405.389 218.807 405.251 218.827 405.111 218.832ZM376.247 175.249C375.825 175.247 375.411 175.356 375.045 175.564C374.679 175.772 374.374 176.072 374.159 176.434C373.944 176.797 373.828 177.209 373.822 177.63C373.816 178.051 373.919 178.466 374.123 178.835L382.257 193.594C384.544 197.761 388.283 200.942 392.762 202.53L398.893 204.707C399.299 204.85 399.648 205.119 399.888 205.475L406.033 214.592L423.129 210.952L416.892 198.129C416.819 197.981 416.765 197.823 416.731 197.662L411.562 172.704C411.235 171.149 410.515 169.705 409.469 168.508C408.424 167.312 407.089 166.404 405.592 165.872L364.619 151.38C364.295 151.264 363.939 151.274 363.622 151.409C363.305 151.544 363.051 151.794 362.91 152.108C362.777 152.399 362.748 152.727 362.83 153.036C362.911 153.345 363.098 153.617 363.357 153.804L392.843 174.948C393.88 175.701 394.575 176.835 394.776 178.1C394.977 179.366 394.667 180.66 393.915 181.697C393.162 182.734 392.028 183.429 390.762 183.63C389.497 183.831 388.203 183.521 387.166 182.769L377.716 175.73C377.292 175.413 376.776 175.244 376.247 175.249Z" fill="#262424"/>
<path d="M538.575 211.716L535.57 290.522C535.57 290.522 486.069 304.546 450.526 312.501C448.95 312.857 447.405 313.197 445.891 313.522C437.712 315.321 429.156 314.012 421.887 309.851C414.619 305.69 409.159 298.974 406.569 291.009C395.83 257.971 390.467 215.222 390.467 215.222C390.467 215.222 407.009 203.702 428.047 207.041L450.085 248.113L538.575 211.716Z" fill="#DE9244"/>
<path d="M442.402 283.173C442.151 283.174 441.903 283.117 441.677 283.008C441.45 282.9 441.251 282.741 441.095 282.545C440.938 282.348 440.828 282.119 440.772 281.874C440.716 281.629 440.717 281.374 440.773 281.13L447.451 252.078C447.494 251.858 447.581 251.649 447.706 251.464C447.831 251.278 447.993 251.119 448.18 250.997C448.368 250.875 448.579 250.792 448.799 250.753C449.02 250.714 449.246 250.72 449.464 250.77C449.683 250.82 449.889 250.914 450.07 251.045C450.252 251.177 450.405 251.343 450.52 251.535C450.636 251.727 450.712 251.94 450.743 252.162C450.775 252.384 450.761 252.61 450.704 252.826L444.025 281.878C443.941 282.245 443.734 282.573 443.44 282.808C443.145 283.044 442.78 283.172 442.402 283.173Z" fill="#262424"/>
<path d="M398.879 232.972C398.503 232.972 398.137 232.845 397.842 232.611C397.547 232.377 397.34 232.05 397.254 231.683C397.168 231.317 397.209 230.932 397.369 230.591C397.53 230.25 397.801 229.974 398.138 229.807C398.719 229.519 412.61 222.767 431.971 222.053C432.414 222.037 432.845 222.198 433.169 222.499C433.494 222.801 433.685 223.22 433.701 223.662C433.717 224.105 433.556 224.536 433.254 224.861C432.953 225.185 432.534 225.376 432.091 225.392C420.896 225.787 409.878 228.302 399.621 232.805C399.39 232.917 399.136 232.974 398.879 232.972Z" fill="#262424"/>
<path d="M401.324 223.722C403.722 223.722 405.665 221.779 405.665 219.381C405.665 216.984 403.722 215.04 401.324 215.04C398.927 215.04 396.983 216.984 396.983 219.381C396.983 221.779 398.927 223.722 401.324 223.722Z" fill="white"/>
<path d="M401.322 225.725C400.067 225.725 398.841 225.353 397.797 224.656C396.754 223.959 395.941 222.968 395.46 221.809C394.98 220.649 394.855 219.374 395.099 218.143C395.344 216.912 395.948 215.782 396.836 214.894C397.723 214.007 398.854 213.403 400.084 213.158C401.315 212.913 402.591 213.039 403.75 213.519C404.909 213.999 405.9 214.812 406.597 215.856C407.295 216.899 407.667 218.126 407.667 219.381C407.665 221.063 406.996 222.676 405.806 223.865C404.617 225.054 403.004 225.723 401.322 225.725ZM401.322 217.043C400.86 217.043 400.408 217.18 400.023 217.437C399.639 217.694 399.339 218.059 399.163 218.486C398.986 218.913 398.939 219.383 399.03 219.837C399.12 220.29 399.342 220.707 399.669 221.034C399.996 221.36 400.413 221.583 400.866 221.673C401.319 221.763 401.789 221.717 402.217 221.54C402.644 221.363 403.009 221.064 403.266 220.679C403.522 220.295 403.66 219.843 403.66 219.381C403.66 218.761 403.413 218.166 402.975 217.728C402.537 217.289 401.942 217.043 401.322 217.043Z" fill="#262424"/>
<path d="M700.525 227.41C700.525 227.41 649.769 193.684 612.369 194.352C574.97 195.019 538.572 211.716 538.572 211.716C508.185 275.161 498.762 417.138 498.762 417.138C498.762 417.138 515.458 422.889 562.741 437.735C588.794 448.047 615.964 455.271 643.698 459.26L648.446 430.983C648.622 429.938 649.195 429.002 650.045 428.37C650.895 427.738 651.956 427.458 653.008 427.59C653.545 427.658 654.064 427.831 654.534 428.1C655.004 428.369 655.417 428.728 655.748 429.157C656.079 429.586 656.321 430.076 656.462 430.599C656.603 431.122 656.638 431.668 656.567 432.205L652.834 460.408C669.697 462.225 679.194 461.55 679.194 461.55C701.239 383.412 700.525 227.41 700.525 227.41Z" fill="#DE9244"/>
<path d="M515.326 291.869C515.078 291.87 514.833 291.815 514.608 291.71C514.383 291.604 514.185 291.45 514.028 291.258C513.871 291.066 513.758 290.841 513.698 290.6C513.639 290.36 513.634 290.108 513.683 289.865C519.921 258.39 527.127 233.279 535.108 215.227C535.185 215.011 535.306 214.814 535.462 214.647C535.619 214.481 535.808 214.348 536.018 214.257C536.229 214.167 536.455 214.12 536.684 214.121C536.913 214.122 537.139 214.169 537.349 214.261C537.558 214.353 537.747 214.487 537.902 214.654C538.058 214.822 538.178 215.02 538.254 215.236C538.33 215.451 538.361 215.681 538.345 215.909C538.328 216.137 538.265 216.359 538.16 216.562C530.279 234.387 523.147 259.264 516.956 290.5C516.886 290.882 516.685 291.228 516.387 291.477C516.09 291.727 515.715 291.866 515.326 291.869Z" fill="#262424"/>
<path d="M651.793 212.436C644.573 227.837 631.757 233.747 623.79 235.971C622.12 224.771 616.985 210.593 616.985 210.593C610.5 218.941 606.847 230.141 605.872 235.303C585.936 229.126 584.273 209.718 584.273 209.718C587.352 190.424 604.489 176.372 618.774 177.321C650.337 179.378 651.793 212.436 651.793 212.436Z" fill="white"/>
<path d="M623.787 237.975C623.303 237.98 622.833 237.81 622.465 237.495C622.097 237.181 621.855 236.744 621.784 236.265C620.669 228.799 617.944 219.849 616.328 214.941C612.317 221.3 609.436 228.304 607.812 235.644C607.76 235.922 607.65 236.185 607.488 236.417C607.327 236.65 607.118 236.845 606.876 236.991C606.634 237.136 606.364 237.229 606.083 237.263C605.802 237.297 605.518 237.271 605.248 237.187C584.271 230.682 582.261 210.065 582.247 209.858C582.227 209.697 582.227 209.533 582.247 209.371C585.647 188.08 604.286 174.322 618.859 175.311C636.109 176.453 644.698 186.524 648.865 194.765C651.615 200.263 653.275 206.241 653.754 212.37C653.769 212.694 653.704 213.017 653.567 213.311C650.772 219.299 646.704 224.605 641.645 228.857C636.587 233.109 630.661 236.205 624.282 237.928C624.119 237.964 623.953 237.98 623.787 237.975ZM616.982 208.59C617.395 208.591 617.798 208.72 618.135 208.959C618.473 209.198 618.728 209.535 618.865 209.925C619.066 210.473 623.44 222.614 625.39 233.407C630.687 231.678 635.577 228.893 639.766 225.219C643.955 221.546 647.355 217.061 649.76 212.036C649.446 207.935 646.341 181.114 618.632 179.271C605.842 178.423 589.373 191.252 586.288 209.725C586.535 211.842 588.819 226.655 604.406 232.625C605.836 226.955 609.349 217.125 615.399 209.337C615.588 209.101 615.828 208.91 616.101 208.779C616.374 208.649 616.673 208.581 616.975 208.583L616.982 208.59Z" fill="#262424"/>
<path d="M725.635 312.999C725.535 340.348 724.726 375.456 719.123 398.891C715.57 413.717 710.107 423.882 701.679 424.436C694.727 424.897 687.434 423.434 680.154 420.703C648.892 408.935 612.341 370.835 608.695 363.268C604.187 353.965 611.366 330.31 622.386 328.54C633.405 326.77 665.128 344.568 665.128 344.568C665.128 344.568 679.627 268.534 683.013 253C686.399 237.466 700.524 227.361 700.524 227.361C720.492 236.344 725.802 268.387 725.635 312.999Z" fill="#DE9244"/>
<path d="M622.134 367.909C624.245 367.495 625.619 365.449 625.205 363.339C624.791 361.229 622.745 359.854 620.635 360.268C618.525 360.682 617.15 362.728 617.564 364.838C617.978 366.948 620.024 368.323 622.134 367.909Z" fill="white"/>
<path d="M621.384 369.987C619.867 369.992 618.407 369.412 617.307 368.37C616.206 367.327 615.548 365.9 615.471 364.386C615.393 362.872 615.901 361.386 616.889 360.236C617.877 359.086 619.27 358.36 620.779 358.209C622.288 358.058 623.797 358.494 624.994 359.425C626.19 360.357 626.982 361.713 627.206 363.213C627.43 364.712 627.068 366.241 626.195 367.481C625.322 368.721 624.006 369.578 622.519 369.874C622.145 369.948 621.765 369.986 621.384 369.987ZM621.384 362.193C621.104 362.193 620.828 362.255 620.574 362.374C620.321 362.493 620.098 362.667 619.92 362.883C619.742 363.098 619.613 363.351 619.544 363.622C619.475 363.893 619.467 364.176 619.52 364.451C619.568 364.695 619.664 364.927 619.801 365.134C619.938 365.341 620.115 365.518 620.322 365.657C620.528 365.796 620.759 365.892 621.003 365.941C621.246 365.991 621.497 365.991 621.741 365.943C621.985 365.896 622.217 365.8 622.424 365.663C622.631 365.525 622.809 365.348 622.947 365.142C623.086 364.936 623.182 364.705 623.232 364.461C623.281 364.217 623.281 363.967 623.234 363.723C623.15 363.294 622.921 362.908 622.585 362.629C622.249 362.35 621.827 362.196 621.39 362.193H621.384Z" fill="#262424"/>
<path d="M677.39 421.63C677.123 421.629 676.86 421.574 676.615 421.47C646.368 408.748 610.872 372.41 606.885 364.189C603.492 357.183 605.97 345.135 610.031 337.355C613.263 331.15 617.537 327.337 622.052 326.609C632.016 325.013 655.618 337.181 663.659 341.529C666.277 327.818 678.044 266.336 681.023 252.618C683.166 242.794 689.311 235.081 694.086 230.339C694.463 229.964 694.974 229.755 695.505 229.757C696.037 229.759 696.546 229.972 696.921 230.349C697.295 230.726 697.505 231.237 697.503 231.769C697.501 232.3 697.288 232.809 696.911 233.184C692.516 237.545 686.893 244.604 684.936 253.473C681.597 268.834 667.212 344.227 667.065 344.968C667.005 345.28 666.872 345.574 666.676 345.825C666.481 346.075 666.228 346.276 665.94 346.41C665.651 346.543 665.335 346.607 665.018 346.594C664.7 346.581 664.39 346.493 664.113 346.337C655.431 341.482 631.148 329.18 622.666 330.543C619.421 331.064 616.188 334.129 613.55 339.185C609.45 347.052 608.06 357.477 610.458 362.419C613.624 368.951 647.29 404.787 678.131 417.757C678.57 417.925 678.935 418.243 679.163 418.653C679.391 419.064 679.468 419.542 679.38 420.003C679.291 420.465 679.044 420.881 678.68 421.178C678.316 421.475 677.859 421.636 677.39 421.63Z" fill="#262424"/>
<path d="M630.172 376.672C629.778 376.672 629.394 376.555 629.066 376.338C628.738 376.12 628.481 375.811 628.328 375.448C628.175 375.085 628.132 374.686 628.204 374.299C628.277 373.912 628.462 373.555 628.736 373.273C644.571 357.017 635.314 332.461 635.221 332.213C635.029 331.718 635.041 331.166 635.256 330.679C635.471 330.192 635.87 329.811 636.366 329.619C636.862 329.427 637.414 329.439 637.901 329.654C638.387 329.869 638.769 330.268 638.961 330.764C639.388 331.866 649.226 357.992 631.615 376.071C631.427 376.263 631.202 376.415 630.954 376.518C630.706 376.621 630.44 376.674 630.172 376.672Z" fill="#262424"/>
<path d="M695.93 368.117C695.602 368.117 695.278 368.036 694.988 367.881C694.698 367.726 694.45 367.502 694.267 367.229C688.353 359.491 680.187 353.775 670.893 350.867C670.437 350.722 670.048 350.42 669.796 350.014C669.544 349.608 669.445 349.125 669.517 348.652C669.59 348.18 669.829 347.749 670.191 347.437C670.554 347.126 671.016 346.954 671.494 346.953C672.162 346.953 687.442 347.02 700.211 352.917C700.45 353.027 700.665 353.184 700.844 353.378C701.022 353.571 701.161 353.798 701.252 354.045C701.343 354.292 701.384 354.555 701.373 354.818C701.362 355.081 701.3 355.339 701.19 355.578C701.079 355.817 700.923 356.032 700.729 356.211C700.536 356.389 700.309 356.528 700.062 356.619C699.815 356.71 699.552 356.751 699.289 356.74C699.026 356.73 698.767 356.667 698.528 356.557C693.678 354.422 688.571 352.926 683.335 352.109C692.685 357.766 697.36 364.624 697.633 365.012C697.834 365.316 697.947 365.669 697.962 366.033C697.977 366.397 697.892 366.758 697.717 367.077C697.542 367.397 697.283 367.662 696.968 367.845C696.653 368.029 696.295 368.123 695.93 368.117Z" fill="#262424"/>
<path d="M599.432 272.402L556.395 280.845C554.285 281.259 552.91 283.305 553.324 285.415L568.196 361.22C568.61 363.33 570.656 364.705 572.766 364.291L615.803 355.848C617.914 355.434 619.289 353.388 618.875 351.277L604.002 275.473C603.588 273.363 601.542 271.988 599.432 272.402Z" fill="white"/>
<path d="M572.004 366.368C570.638 366.364 569.316 365.887 568.263 365.018C567.209 364.148 566.49 362.94 566.227 361.6L551.354 285.799C551.205 285.038 551.208 284.254 551.362 283.493C551.516 282.732 551.819 282.009 552.254 281.366C552.688 280.722 553.245 280.171 553.893 279.743C554.541 279.316 555.267 279.02 556.029 278.874L599.065 270.432C599.827 270.284 600.61 270.287 601.371 270.442C602.131 270.596 602.854 270.9 603.497 271.334C604.141 271.768 604.692 272.325 605.12 272.972C605.548 273.62 605.844 274.345 605.991 275.107L620.864 350.908C621.012 351.669 621.009 352.453 620.854 353.214C620.7 353.974 620.396 354.697 619.962 355.34C619.528 355.983 618.971 356.534 618.324 356.962C617.676 357.39 616.951 357.686 616.189 357.833L573.153 366.275C572.774 366.343 572.389 366.374 572.004 366.368ZM600.181 274.332C600.057 274.332 599.934 274.343 599.813 274.366L556.777 282.807C556.533 282.855 556.301 282.951 556.094 283.089C555.887 283.226 555.709 283.404 555.571 283.61C555.433 283.817 555.336 284.049 555.288 284.293C555.239 284.536 555.239 284.787 555.288 285.031L570.161 360.832C570.259 361.324 570.549 361.757 570.965 362.036C571.382 362.315 571.892 362.417 572.385 362.321L615.421 353.88C615.913 353.781 616.346 353.492 616.625 353.075C616.904 352.658 617.006 352.148 616.91 351.656L602.037 275.855C601.951 275.426 601.719 275.04 601.38 274.763C601.042 274.485 600.618 274.333 600.181 274.332Z" fill="#262424"/>
<path d="M566.539 294.383C568.649 293.969 570.024 291.923 569.61 289.813C569.196 287.703 567.15 286.328 565.04 286.742C562.929 287.156 561.554 289.202 561.968 291.312C562.382 293.422 564.429 294.797 566.539 294.383Z" fill="white"/>
<path d="M565.779 296.471C564.663 296.467 563.57 296.147 562.628 295.547C561.687 294.947 560.935 294.092 560.46 293.081C559.985 292.07 559.807 290.945 559.947 289.838C560.086 288.73 560.537 287.684 561.247 286.822C561.958 285.961 562.898 285.319 563.959 284.971C565.02 284.622 566.158 284.583 567.241 284.856C568.324 285.13 569.306 285.705 570.075 286.515C570.844 287.325 571.367 288.336 571.583 289.432C571.881 290.97 571.556 292.564 570.679 293.862C569.802 295.161 568.446 296.058 566.908 296.357C566.536 296.431 566.158 296.469 565.779 296.471ZM565.779 288.677C565.656 288.676 565.533 288.688 565.412 288.711C564.938 288.801 564.516 289.071 564.235 289.463C563.954 289.856 563.834 290.342 563.901 290.82C563.967 291.298 564.215 291.733 564.593 292.034C564.971 292.334 565.45 292.479 565.931 292.436C566.412 292.394 566.858 292.169 567.178 291.807C567.497 291.445 567.666 290.974 567.648 290.491C567.63 290.009 567.428 289.551 567.083 289.214C566.737 288.876 566.276 288.684 565.793 288.677H565.779Z" fill="#262424"/>
<path d="M585.282 308.491C578.397 310.495 579.105 321.013 587.62 321.013C596.135 321.013 621.346 319.511 617.673 309.326C613.999 299.141 598.953 304.484 585.282 308.491Z" fill="white"/>
<path d="M587.599 323.018C582.149 323.018 579.191 319.425 578.683 315.865C578.388 313.85 578.835 311.797 579.941 310.087C581.047 308.377 582.736 307.127 584.694 306.569L587.646 305.694C600.689 301.813 615.482 297.412 619.535 308.646C619.96 309.703 620.112 310.851 619.977 311.983C619.843 313.114 619.427 314.194 618.767 315.124C613.498 322.637 591.88 323.018 587.599 323.018ZM585.823 310.415C584.786 310.697 583.89 311.35 583.304 312.251C582.719 313.151 582.486 314.236 582.65 315.297C582.904 317.094 584.34 319.011 587.599 319.011C597.062 319.011 612.309 317.361 615.495 312.82C615.783 312.416 615.961 311.944 616.009 311.45C616.057 310.957 615.974 310.459 615.769 310.008C613.198 302.882 602.973 305.333 588.794 309.54L585.823 310.422V310.415Z" fill="#262424"/>
<path d="M589.29 320.347C582.665 323.018 582.778 334.372 586.284 346.56C589.791 358.748 598.473 364.592 610.661 361.586C622.849 358.581 630.028 351.569 626.188 334.372C622.348 317.175 617.152 309.16 589.29 320.347Z" fill="white"/>
<path d="M604.651 364.356C594.907 364.356 587.52 358.231 584.322 347.112C579.907 331.751 581.43 321.326 588.509 318.488C602.594 312.838 611.59 311.749 617.674 314.955C623.517 318.034 626.002 324.498 628.105 333.935C631.772 350.364 626.369 359.767 611.102 363.534C608.993 364.067 606.826 364.343 604.651 364.356ZM589.998 322.208C585.277 324.104 584.555 333.448 588.175 346.01C591.474 357.483 599.275 362.325 610.147 359.647C623.163 356.435 627.371 349.008 624.172 334.817C622.315 326.495 620.265 320.865 615.784 318.508C610.895 315.937 602.694 317.112 589.978 322.214L589.998 322.208Z" fill="#262424"/>
<path d="M638.535 138.826L637.373 158.24L635.436 191.452C624.003 198.906 613.103 199.38 602.872 191.165L604.876 175.805L607.961 152.497L638.535 138.826Z" fill="white"/>
<path d="M618.6 199.185C612.663 199.185 606.993 197.028 601.624 192.72C601.355 192.505 601.146 192.224 601.017 191.905C600.889 191.586 600.844 191.238 600.889 190.897L606.005 152.195C606.049 151.856 606.18 151.533 606.384 151.258C606.589 150.983 606.861 150.766 607.173 150.626L637.721 136.995C638.035 136.854 638.381 136.797 638.724 136.829C639.067 136.861 639.396 136.98 639.679 137.176C639.962 137.372 640.19 137.638 640.341 137.948C640.492 138.258 640.56 138.601 640.539 138.945L637.447 191.565C637.428 191.878 637.337 192.183 637.179 192.454C637.021 192.726 636.802 192.957 636.539 193.128C630.334 197.168 624.344 199.185 618.6 199.185ZM605.016 190.276C613.698 196.794 623.048 196.801 633.506 190.276L636.345 141.964L609.831 153.798L605.016 190.276Z" fill="#262424"/>
<path d="M627.985 143.53C627.551 152.306 627.39 182.219 603.729 184.69L607.989 152.459L627.985 143.53Z" fill="#262424"/>
<path d="M579.526 139.305C581.135 155.3 585.777 174.427 604.964 171.449C627.778 167.909 642.524 151.781 642.737 130.076C642.951 108.371 632.94 96.1291 606.947 98.6135C604.737 98.8202 602.548 99.2112 600.403 99.7822C585.443 103.789 577.923 116.205 578.851 130.75C579.018 133.382 579.212 136.293 579.526 139.305Z" fill="white"/>
<path d="M601.142 173.762C596.805 173.864 592.569 172.447 589.168 169.755C579.604 162.074 577.814 145.672 576.846 130.893C576.278 121.984 578.656 114.036 583.718 107.912C589.061 101.467 597.015 97.5671 606.752 96.6321C607.284 96.5816 607.813 96.7443 608.225 97.0843C608.636 97.4244 608.896 97.9139 608.946 98.4453C608.997 98.9766 608.834 99.5063 608.494 99.9177C608.154 100.329 607.664 100.589 607.133 100.639C590.103 102.269 579.751 114.049 580.846 130.652C581.514 140.71 582.69 159.43 591.679 166.642C595.098 169.387 599.346 170.322 604.655 169.494C613.143 168.158 620.47 165.106 626.427 160.371C626.843 160.041 627.374 159.89 627.902 159.95C628.429 160.011 628.912 160.279 629.242 160.695C629.572 161.111 629.724 161.642 629.663 162.17C629.602 162.698 629.334 163.18 628.918 163.51C622.5 168.613 614.326 172.052 605.27 173.454C603.904 173.663 602.524 173.765 601.142 173.762Z" fill="#262424"/>
<path d="M649.522 134.163C647.325 137.343 644.856 140.326 642.142 143.079L630.635 143.793L628.184 135.652C628.184 135.652 620.885 135.325 619.375 130.403C619.337 130.289 619.306 130.173 619.282 130.056C618.895 128.439 617.399 121.24 618.494 110.06C618.494 110.06 600.943 117.807 591.393 118.816C587.96 119.183 583.946 117.861 580.213 116.011C572.733 112.318 566.188 100.129 567.524 91.8948V91.7346C569.581 79.6599 575.872 88.028 575.872 88.028C575.872 88.028 577.675 78.3042 583.759 77.6096C589.843 76.9151 593.723 85.8909 593.723 85.8909C605.413 83.167 617.51 82.6618 629.387 84.4016C652.928 87.9946 647.064 104.21 647.064 104.21C647.064 104.21 664.375 109.766 649.522 134.163Z" fill="#262424"/>
<path d="M633.142 142.551C632.154 133.482 638.531 125.06 647.594 124.019C649.515 123.788 651.462 123.926 653.331 124.426C664.564 127.458 661.612 153.611 634.13 151.614L633.142 142.551Z" fill="white"/>
<path d="M636.996 153.732C636.021 153.732 635.015 153.694 633.977 153.618C633.446 153.579 632.952 153.331 632.604 152.928C632.255 152.524 632.082 151.999 632.121 151.468C632.16 150.936 632.408 150.442 632.811 150.094C633.215 149.746 633.74 149.572 634.271 149.611C649.371 150.713 656.103 143.013 657.278 136.087C658.08 131.366 656.196 127.272 652.804 126.357C651.178 125.922 649.485 125.802 647.815 126.003C639.941 126.911 634.244 134.231 635.126 142.332C635.154 142.595 635.131 142.861 635.056 143.115C634.982 143.369 634.858 143.606 634.692 143.812C634.527 144.018 634.322 144.19 634.09 144.317C633.857 144.444 633.602 144.524 633.339 144.552C633.076 144.581 632.81 144.557 632.556 144.483C632.302 144.408 632.065 144.285 631.859 144.119C631.653 143.953 631.481 143.748 631.354 143.516C631.227 143.284 631.147 143.029 631.119 142.766C630.003 132.488 637.276 123.184 647.334 122.029C649.508 121.771 651.711 121.93 653.826 122.497C659.255 123.966 662.361 129.963 661.172 136.768C659.756 145.45 651.715 153.732 636.996 153.732Z" fill="#262424"/>
<path d="M735.488 812.11H142.44C141.909 812.11 141.399 811.899 141.023 811.523C140.648 811.147 140.437 810.637 140.437 810.106C140.437 809.575 140.648 809.065 141.023 808.689C141.399 808.314 141.909 808.103 142.44 808.103H735.488C736.019 808.103 736.529 808.314 736.905 808.689C737.28 809.065 737.491 809.575 737.491 810.106C737.491 810.637 737.28 811.147 736.905 811.523C736.529 811.899 736.019 812.11 735.488 812.11Z" fill="#262424"/>
<path d="M124.469 812.11H93.0397C92.5083 812.11 91.9987 811.899 91.6229 811.523C91.2472 811.147 91.0361 810.637 91.0361 810.106C91.0361 809.575 91.2472 809.065 91.6229 808.689C91.9987 808.314 92.5083 808.103 93.0397 808.103H124.469C125 808.103 125.51 808.314 125.885 808.689C126.261 809.065 126.472 809.575 126.472 810.106C126.472 810.637 126.261 811.147 125.885 811.523C125.51 811.899 125 812.11 124.469 812.11Z" fill="#262424"/>
<path d="M764.605 812.11H748.904C748.373 812.11 747.863 811.899 747.487 811.523C747.111 811.147 746.9 810.637 746.9 810.106C746.9 809.575 747.111 809.065 747.487 808.689C747.863 808.314 748.373 808.103 748.904 808.103H764.618C765.15 808.104 765.659 808.317 766.033 808.694C766.408 809.071 766.617 809.581 766.615 810.113C766.613 810.644 766.401 811.153 766.024 811.528C765.647 811.902 765.136 812.111 764.605 812.11Z" fill="#262424"/>
<path d="M572.304 837.708H305.62C305.088 837.708 304.579 837.497 304.203 837.121C303.827 836.746 303.616 836.236 303.616 835.705C303.616 835.173 303.827 834.664 304.203 834.288C304.579 833.912 305.088 833.701 305.62 833.701H572.304C572.836 833.701 573.345 833.912 573.721 834.288C574.097 834.664 574.308 835.173 574.308 835.705C574.308 836.236 574.097 836.746 573.721 837.121C573.345 837.497 572.836 837.708 572.304 837.708Z" fill="#262424"/>
<path d="M271.71 837.708H215.611C215.08 837.708 214.57 837.497 214.194 837.121C213.819 836.746 213.607 836.236 213.607 835.705C213.607 835.173 213.819 834.664 214.194 834.288C214.57 833.912 215.08 833.701 215.611 833.701H271.71C272.241 833.701 272.751 833.912 273.127 834.288C273.503 834.664 273.714 835.173 273.714 835.705C273.714 836.236 273.503 836.746 273.127 837.121C272.751 837.497 272.241 837.708 271.71 837.708Z" fill="#262424"/>
<path d="M630.609 837.708H612.17C611.638 837.708 611.129 837.497 610.753 837.121C610.377 836.746 610.166 836.236 610.166 835.705C610.166 835.173 610.377 834.664 610.753 834.288C611.129 833.912 611.638 833.701 612.17 833.701H630.609C631.14 833.701 631.65 833.912 632.026 834.288C632.401 834.664 632.612 835.173 632.612 835.705C632.612 836.236 632.401 836.746 632.026 837.121C631.65 837.497 631.14 837.708 630.609 837.708Z" fill="#262424"/>
<path d="M372.578 439.798H140.168C137.405 439.73 134.749 438.717 132.642 436.928C130.535 435.139 129.104 432.683 128.587 429.968L65.8096 36.9401C64.9414 31.5105 68.7214 27.1094 74.2512 27.1094H306.662C309.425 27.1782 312.081 28.1913 314.188 29.9799C316.295 31.7686 317.726 34.2249 318.242 36.9401L381.02 429.968C381.888 435.391 378.108 439.798 372.578 439.798Z" fill="white"/>
<path d="M372.579 441.802H140.168C133.703 441.802 127.626 436.633 126.611 430.281L63.8331 37.2537C63.5455 35.7432 63.6016 34.1873 63.9973 32.7014C64.393 31.2156 65.118 29.8378 66.1187 28.6703C67.1194 27.5029 68.3701 26.5756 69.7779 25.9574C71.1858 25.3391 72.7148 25.0457 74.2515 25.0989H306.662C313.127 25.0989 319.204 30.268 320.219 36.6193L382.997 429.647C383.285 431.157 383.229 432.713 382.833 434.199C382.437 435.685 381.712 437.063 380.711 438.23C379.711 439.398 378.46 440.325 377.052 440.943C375.644 441.562 374.115 441.855 372.579 441.802ZM74.2515 29.106C73.291 29.0755 72.3355 29.2565 71.4526 29.6362C70.5697 30.0159 69.7811 30.585 69.1425 31.3032C68.5406 32.0407 68.1089 32.9019 67.878 33.8254C67.6471 34.7489 67.6228 35.712 67.8068 36.646L130.584 429.674C131.012 431.926 132.198 433.963 133.946 435.445C135.693 436.928 137.897 437.767 140.188 437.821H372.599C373.559 437.852 374.515 437.671 375.398 437.291C376.28 436.912 377.069 436.342 377.708 435.624C378.31 434.887 378.741 434.026 378.972 433.102C379.203 432.179 379.227 431.215 379.043 430.281L316.266 37.2537C315.839 35.0019 314.652 32.9647 312.904 31.4819C311.157 29.9992 308.953 29.1606 306.662 29.106H74.2515Z" fill="#262424"/>
<path d="M347.857 404.173H309.789C307.026 404.104 304.37 403.091 302.263 401.302C300.156 399.513 298.726 397.057 298.209 394.342L286.942 323.871C286.074 318.441 289.854 314.04 295.384 314.04H333.451C336.214 314.109 338.87 315.122 340.977 316.911C343.084 318.699 344.515 321.156 345.032 323.871L356.298 394.342C357.167 399.771 353.386 404.173 347.857 404.173Z" fill="#DE9244"/>
<path d="M269.725 404.173H231.658C228.895 404.104 226.239 403.091 224.132 401.302C222.025 399.513 220.594 397.057 220.077 394.342L208.811 323.871C207.942 318.441 211.722 314.04 217.252 314.04H255.319C258.082 314.109 260.739 315.122 262.846 316.911C264.953 318.699 266.383 321.156 266.9 323.871L278.167 394.342C279.028 399.771 275.255 404.173 269.725 404.173Z" fill="#88C0C2"/>
<path d="M191.586 404.173H153.519C150.756 404.104 148.1 403.091 145.993 401.302C143.886 399.513 142.455 397.057 141.939 394.342L130.672 323.871C129.804 318.441 133.584 314.04 139.114 314.04H177.181C179.944 314.109 182.6 315.122 184.707 316.911C186.814 318.699 188.245 321.156 188.761 323.871L200.028 394.342C200.896 399.771 197.116 404.173 191.586 404.173Z" fill="white"/>
<path d="M191.586 406.179H153.518C147.054 406.179 140.976 401.01 139.961 394.659L128.694 324.194C128.407 322.684 128.463 321.128 128.859 319.642C129.254 318.156 129.979 316.778 130.98 315.611C131.981 314.443 133.231 313.516 134.639 312.898C136.047 312.28 137.576 311.986 139.113 312.039H177.18C183.645 312.039 189.722 317.208 190.737 323.56L202.004 394.024C202.292 395.535 202.235 397.091 201.84 398.576C201.444 400.062 200.719 401.44 199.718 402.608C198.718 403.775 197.467 404.702 196.059 405.321C194.651 405.939 193.122 406.232 191.586 406.179ZM139.113 316.02C138.152 315.989 137.197 316.17 136.314 316.55C135.431 316.93 134.642 317.499 134.004 318.217C133.402 318.954 132.97 319.816 132.739 320.739C132.508 321.663 132.484 322.626 132.668 323.56L143.921 394.024C144.349 396.276 145.535 398.313 147.283 399.796C149.03 401.279 151.234 402.117 153.525 402.172H191.592C192.553 402.202 193.508 402.021 194.391 401.642C195.274 401.262 196.063 400.693 196.701 399.975C197.303 399.237 197.735 398.376 197.966 397.452C198.197 396.529 198.221 395.566 198.037 394.632L186.797 324.194C186.371 321.948 185.19 319.915 183.449 318.433C181.708 316.951 179.512 316.109 177.227 316.046H139.16L139.113 316.02Z" fill="#262424"/>
<path d="M355.049 267.37H102.617L71.1611 70.3955H323.594L355.049 267.37Z" fill="white"/>
<path d="M355.047 269.375H102.601C102.12 269.381 101.653 269.214 101.285 268.904C100.917 268.593 100.673 268.161 100.598 267.686L69.182 70.7111C69.1363 70.423 69.154 70.1283 69.234 69.8477C69.314 69.5672 69.4543 69.3075 69.6451 69.0867C69.8359 68.866 70.0727 68.6897 70.3387 68.57C70.6048 68.4502 70.8938 68.3901 71.1855 68.3937H323.632C324.113 68.3878 324.58 68.5552 324.948 68.8655C325.316 69.1757 325.56 69.608 325.635 70.0834L357.097 267.058C357.144 267.35 357.125 267.649 357.042 267.933C356.96 268.217 356.815 268.479 356.619 268.701C356.423 268.922 356.181 269.098 355.909 269.214C355.637 269.331 355.343 269.386 355.047 269.375ZM104.324 265.368H352.696L321.882 72.4008H73.5096L104.324 265.368Z" fill="#262424"/>
<path d="M214.68 227.515C173.387 208.708 129.196 227.515 129.196 227.515L111.778 118.589C111.778 118.589 155.97 99.7824 197.263 118.589L214.68 227.515Z" fill="#DE9244"/>
<path d="M230.262 227.515C265.551 208.708 315.746 227.515 315.746 227.515L298.349 118.589C298.349 118.589 248.153 99.7824 212.864 118.589L230.262 227.515Z" fill="#DE9244"/>
<path d="M230.262 227.537H214.682L197.284 118.591H212.865L230.262 227.537Z" fill="#88C0C2"/>
<path d="M106.899 57.442H91.2247C90.6184 57.424 90.0318 57.223 89.5418 56.8654C89.0519 56.5078 88.6817 56.0103 88.4798 55.4384L84.1054 42.9096C83.9678 42.5875 83.9144 42.2357 83.9503 41.8873C83.9862 41.5388 84.1102 41.2053 84.3106 40.918C84.5111 40.6308 84.7813 40.3992 85.0959 40.2453C85.4105 40.0913 85.7591 40.0199 86.1089 40.0379H106.538C107.298 40.0514 108.022 40.3577 108.561 40.8928C109.1 41.4279 109.411 42.1505 109.43 42.9096L109.056 55.4384C109.057 55.715 109.001 55.9887 108.89 56.2424C108.78 56.496 108.619 56.7241 108.416 56.9123C108.213 57.1005 107.974 57.2447 107.713 57.3359C107.452 57.427 107.175 57.4632 106.899 57.442Z" fill="#88C0C2"/>
<path d="M300.11 45.308H281.277C280.539 45.2903 279.83 45.0201 279.267 44.5425C278.704 44.0648 278.322 43.4086 278.185 42.6834C278.12 42.3567 278.13 42.0196 278.214 41.6974C278.299 41.3752 278.455 41.0764 278.672 40.8236C278.889 40.5708 279.16 40.3705 279.466 40.238C279.771 40.1055 280.103 40.0442 280.436 40.0587H299.302C300.04 40.0764 300.75 40.3466 301.312 40.8243C301.875 41.3019 302.257 41.9581 302.394 42.6834C302.46 43.0129 302.45 43.3531 302.364 43.678C302.278 44.0028 302.118 44.3035 301.897 44.557C301.677 44.8105 301.401 45.01 301.091 45.1402C300.781 45.2704 300.446 45.3278 300.11 45.308Z" fill="#88C0C2"/>
<path d="M302.115 57.4398H283.215C282.477 57.4222 281.767 57.152 281.204 56.6743C280.642 56.1966 280.26 55.5404 280.122 54.8152C280.057 54.4886 280.067 54.1514 280.152 53.8292C280.236 53.507 280.393 53.2082 280.609 52.9554C280.826 52.7026 281.098 52.5024 281.403 52.3699C281.709 52.2374 282.04 52.176 282.373 52.1906H301.246C301.984 52.2082 302.694 52.4785 303.257 52.9561C303.819 53.4338 304.201 54.09 304.339 54.8152C304.403 55.1395 304.394 55.4743 304.311 55.7944C304.228 56.1145 304.074 56.4118 303.86 56.6641C303.646 56.9164 303.378 57.1172 303.076 57.2515C302.774 57.3858 302.445 57.4502 302.115 57.4398Z" fill="#88C0C2"/>
<path d="M461.602 47.9424C464.643 46.63 467.074 44.2154 468.408 41.1838L470.151 37.1768L471.894 41.1838C473.217 44.2181 475.638 46.6397 478.673 47.9625L482.68 49.7056L478.673 51.4486C475.638 52.7714 473.217 55.193 471.894 58.2273L470.151 62.2344L468.408 58.2273C467.085 55.193 464.663 52.7714 461.629 51.4486L457.622 49.7056L461.602 47.9424Z" fill="#88C0C2"/>
<path d="M44.0587 418.294C46.3826 417.283 48.2368 415.428 49.2479 413.105L50.5836 410.046L51.9193 413.105C52.9304 415.428 54.7846 417.283 57.1085 418.294L60.1672 419.629L57.1085 420.965C54.7846 421.976 52.9304 423.831 51.9193 426.154L50.5836 429.213L49.2479 426.154C48.2368 423.831 46.3826 421.976 44.0587 420.965L41 419.629L44.0587 418.294Z" fill="#DE9244"/>
<path d="M85.4395 473.83C89.1143 472.229 92.0468 469.297 93.6474 465.622L95.7578 460.78L97.8682 465.622C99.4688 469.297 102.401 472.229 106.076 473.83L110.918 475.94L106.076 478.051C102.401 479.651 99.4688 482.584 97.8682 486.259L95.7511 491.087L93.6407 486.245C92.0401 482.57 89.1076 479.638 85.4329 478.037L80.5977 475.954L85.4395 473.83Z" fill="#88C0C2"/>
<path d="M670.875 18.3725C676.051 16.1181 680.181 11.9878 682.436 6.81203L685.408 0L688.38 6.81203C690.634 11.9878 694.764 16.1181 699.94 18.3725L706.752 21.3444L699.94 24.3163C694.768 26.5612 690.636 30.6789 688.373 35.8433L685.401 42.6554L682.429 35.8433C680.175 30.6676 676.044 26.5372 670.869 24.2829L664.057 21.311L670.875 18.3725Z" fill="#DE9244"/>
<path d="M708.152 159.048C712.364 159.048 715.779 155.633 715.779 151.421C715.779 147.209 712.364 143.794 708.152 143.794C703.94 143.794 700.525 147.209 700.525 151.421C700.525 155.633 703.94 159.048 708.152 159.048Z" fill="#88C0C2"/>
<defs>
<filter id="filter0_d_908_1260" x="0.5" y="102.5" width="828" height="638" filterUnits="userSpaceOnUse" color-interpolation-filters="sRGB">
<feFlood flood-opacity="0" result="BackgroundImageFix"/>
<feColorMatrix in="SourceAlpha" type="matrix" values="0 0 0 0 0 0 0 0 0 0 0 0 0 0 0 0 0 0 127 0" result="hardAlpha"/>
<feOffset dy="1"/>
<feGaussianBlur stdDeviation="2.75"/>
<feComposite in2="hardAlpha" operator="out"/>
<feColorMatrix type="matrix" values="0 0 0 0 0 0 0 0 0 0 0 0 0 0 0 0 0 0 0.25 0"/>
<feBlend mode="normal" in2="BackgroundImageFix" result="effect1_dropShadow_908_1260"/>
<feBlend mode="normal" in="SourceGraphic" in2="effect1_dropShadow_908_1260" result="shape"/>
</filter>
</defs>
</svg>
