<svg width="57" height="57" viewBox="0 0 57 57" fill="none" xmlns="http://www.w3.org/2000/svg">
<path d="M46.2778 47.8655L31.4055 32.9933C30.218 34.005 28.8524 34.788 27.3087 35.3422C25.7649 35.8963 24.2133 36.1734 22.6537 36.1734C18.8505 36.1734 15.6316 34.8569 12.9969 32.2238C10.3623 29.5891 9.04492 26.371 9.04492 22.5694C9.04492 18.7678 10.3607 15.5481 12.9922 12.9103C15.6253 10.2709 18.8426 8.95117 22.6442 8.95117C26.4473 8.95117 29.6678 10.2685 32.3057 12.9032C34.9435 15.5378 36.2624 18.7575 36.2624 22.5623C36.2624 24.2121 35.9703 25.8089 35.386 27.3527C34.8002 28.8964 34.0323 30.2169 33.0823 31.3142L47.9545 46.184L46.2754 47.8655H46.2778ZM22.6537 33.796C25.8045 33.796 28.4653 32.7115 30.636 30.5423C32.8052 28.3731 33.8898 25.7123 33.8898 22.5599C33.8898 19.4091 32.8052 16.7491 30.636 14.5799C28.4669 12.4108 25.8069 11.3262 22.656 11.3262C19.5052 11.3262 16.8444 12.4108 14.6737 14.5799C12.5045 16.7491 11.4199 19.4091 11.4199 22.5599C11.4199 25.7108 12.5045 28.3708 14.6737 30.5399C16.8428 32.7091 19.5028 33.796 22.6537 33.796Z" fill="#646464"/>
</svg>
